<?xml version="1.0" encoding="utf-8"?>
<!-- Generator: Adobe Illustrator 23.0.3, SVG Export Plug-In . SVG Version: 6.00 Build 0)  -->
<svg version="1.1" id="Layer_1" xmlns="http://www.w3.org/2000/svg" xmlns:xlink="http://www.w3.org/1999/xlink" x="0px" y="0px"
	 viewBox="0 0 36.33 58.03" style="enable-background:new 0 0 36.33 58.03;" xml:space="preserve">
<style type="text/css">
	.st0{fill:none;stroke:#939598;stroke-width:0.25;stroke-miterlimit:10;}
	.st1{fill:#F7941D;}
	.st2{opacity:0.29;}
	.st3{opacity:0.6;fill:#FFFFFF;}
	.st4{fill:#27AAE1;}
	.st5{fill:#F9ED32;}
	.st6{fill:#EC008C;}
	.st7{opacity:0.21;fill:#FFFFFF;}
	.st8{fill:#2BB673;}
	.st9{fill:#E93949;}
</style>
<g>
	<path class="st0" d="M7.69,29.32c0,0,2.11,1.93,5,4.65s5.72,4.39,5.67,7.89s-0.11,6-1.44,8.72c-1.33,2.72-0.81,5.17-1.04,6.44"/>
	<path class="st0" d="M13.8,27.44c0,0,2.18,5.64,2.59,6.81c0.41,1.17,1.35,3.93,1.41,5.07c0.06,1.15-0.32,5.4,0,6.26
		c0.32,0.86-0.33,4.78-0.61,6.06c-0.28,1.28-0.8,5.72-0.8,5.72"/>
	<path class="st0" d="M8.52,14.67c0,0,5.34,16.91,5.28,18.13c-0.06,1.22,2.78,5.17,3.11,6.78s0.82,10.67,0.77,11.11
		c-0.05,0.44-0.88,6-0.77,6.33"/>
	<path class="st0" d="M21.64,27.44c-0.01,0.14-2.07,7.42-2.4,9.48c-0.33,2.06-2.87,20.83-2.85,21.11"/>
	<path class="st0" d="M29.04,24.61c0,0-2.74,5.01-3.71,5.99c-0.98,0.98-2.31,4.52-2.87,5.25c-0.56,0.73-1.9,2.01-2.25,3.4
		c-0.36,1.39-0.98,3.83-1.2,5c-0.22,1.17-0.27,4.17-0.66,5.33c-0.39,1.17-2.49,8.44-2.49,8.44"/>
	<path class="st0" d="M19.01,23.86c0,0-0.38,6.39-0.66,8.23c-0.28,1.83,0.06,3.78,0,5.33c-0.06,1.56-0.13,8.92,0,10.28
		s-0.93,7.44-0.83,8.67"/>
	<path class="st0" d="M26.52,16.49c0,0-3.24,14.2-4.06,15.98c-0.82,1.78-2.24,4.33-2.24,5.56s-3.01,14.39-3.82,15.28"/>
	<path class="st0" d="M16.16,7.18C16.08,7.47,15.19,17.63,14.71,19c-0.47,1.37,0.29,6.42,0.47,7.48c0.17,1.06,2.01,6.72,2.34,8.61
		s1.99,12.06,1.49,14.5c-0.49,2.44-0.88,5.39-1.22,6.28"/>
	<g>
		<g>
			<path class="st1" d="M21.39,4.84c1.14,3.49,0.13,8.42-2.78,9.37c-2.91,0.95-6.62-2.45-7.76-5.94s0.3-7.09,3.21-8.03
				S20.26,1.35,21.39,4.84z"/>
			<path class="st2" d="M21.39,4.84c-0.09-0.27-0.19-0.53-0.3-0.78c0.16,4.85-1.36,8.36-2.35,10.1C21.55,13.1,22.51,8.27,21.39,4.84
				z"/>
			<path class="st3" d="M11.21,6.15c0.33,0.36,1.37,1.04,1.89,0.54s0.42-1.89,0.79-2.54c0.37-0.65,1.37-1.05,1.13-1.63
				s-1.75-1.27-2.48-0.53S11.65,3.9,11.3,4.29S10.81,5.72,11.21,6.15z"/>
		</g>
		<g>
			<path class="st4" d="M28.76,11.86c-1.43,3.38-5.43,6.44-8.24,5.24s-3.39-6.19-1.95-9.57s4.88-5.15,7.69-3.95
				S30.19,8.48,28.76,11.86z"/>
			<path class="st2" d="M28.76,11.86c0.11-0.26,0.2-0.52,0.28-0.78c-3.06,3.76-6.51,5.41-8.4,6.07
				C23.45,18.21,27.35,15.19,28.76,11.86z"/>
			<path class="st3" d="M20.21,6.17c0.01,0.49,0.35,1.68,1.07,1.64c0.73-0.04,1.56-1.15,2.27-1.4s1.72,0.11,1.92-0.49
				c0.2-0.6-0.49-2.11-1.52-2.03s-1.93,0.86-2.45,0.93C20.99,4.89,20.2,5.58,20.21,6.17z"/>
		</g>
		<g>
			<path class="st5" d="M29.74,19.17c-2.27,2.76-6.84,4.52-9.14,2.63c-2.3-1.89-1.46-6.71,0.81-9.47s5.97-3.47,8.27-1.58
				S32.01,16.41,29.74,19.17z"/>
			<path class="st2" d="M29.74,19.17c0.17-0.21,0.33-0.43,0.48-0.65c-3.89,2.67-7.57,3.26-9.51,3.37
				C23.04,23.63,27.51,21.89,29.74,19.17z"/>
			<path class="st3" d="M23.32,11.5c-0.12,0.46-0.14,1.67,0.55,1.83c0.69,0.16,1.77-0.65,2.5-0.68c0.73-0.03,1.58,0.58,1.93,0.07
				s0.13-2.1-0.87-2.31c-0.99-0.21-2.04,0.28-2.54,0.19S23.47,10.95,23.32,11.5z"/>
		</g>
		<g>
			<path class="st6" d="M14.12,10.7c0.98,3.13,0.03,7.53-2.58,8.34s-5.89-2.26-6.87-5.39S5.02,7.31,7.63,6.5S13.15,7.57,14.12,10.7z
				"/>
			<path class="st2" d="M14.12,10.7c-0.08-0.24-0.16-0.47-0.26-0.7c0.09,4.34-1.31,7.45-2.21,9C14.18,18.09,15.08,13.78,14.12,10.7z
				"/>
			<path class="st7" d="M5,11.76c0.29,0.33,1.21,0.95,1.68,0.5c0.47-0.45,0.39-1.68,0.74-2.26c0.34-0.58,1.24-0.92,1.03-1.45
				S6.9,7.39,6.24,8.05s-0.82,1.7-1.13,2.05C4.79,10.45,4.66,11.37,5,11.76z"/>
		</g>
		<g>
			<path class="st6" d="M35.16,25.29c-1.88,2.89-6.08,5.08-8.49,3.51c-2.41-1.57-2.12-6.29-0.24-9.19c1.88-2.89,5.36-3.97,7.77-2.4
				C36.61,18.78,37.04,22.4,35.16,25.29z"/>
			<path class="st2" d="M35.16,25.29c0.14-0.22,0.27-0.45,0.39-0.68c-3.45,2.99-6.92,3.95-8.77,4.25
				C29.2,30.3,33.31,28.14,35.16,25.29z"/>
			<path class="st7" d="M28.17,18.62c-0.07,0.46,0.05,1.62,0.73,1.7c0.68,0.08,1.63-0.81,2.33-0.92c0.7-0.11,1.58,0.38,1.86-0.14
				c0.28-0.52-0.1-2.03-1.08-2.13c-0.97-0.09-1.93,0.48-2.42,0.46C29.1,17.56,28.25,18.07,28.17,18.62z"/>
		</g>
		<g>
			<path class="st5" d="M16.61,21.48c1.54,3.22,1.21,8.11-1.48,9.39s-6.7-1.52-8.24-4.74s-0.62-6.88,2.07-8.16
				S15.07,18.26,16.61,21.48z"/>
			<path class="st2" d="M16.61,21.48c-0.12-0.25-0.25-0.48-0.39-0.71C17,25.42,15.98,29,15.25,30.81
				C17.82,29.44,18.13,24.65,16.61,21.48z"/>
			<path class="st3" d="M6.95,24.05c0.37,0.31,1.45,0.83,1.89,0.28S9,22.45,9.28,21.77s1.19-1.18,0.88-1.72s-1.85-1-2.46-0.19
				c-0.61,0.81-0.61,1.96-0.9,2.38C6.52,22.67,6.51,23.69,6.95,24.05z"/>
		</g>
		<g>
			<path class="st8" d="M21.12,13.52c0.77,3.49-0.66,8.17-3.57,8.81c-2.91,0.64-6.18-2.99-6.96-6.48c-0.77-3.49,0.96-6.84,3.86-7.48
				S20.35,10.04,21.12,13.52z"/>
			<path class="st2" d="M21.12,13.52c-0.06-0.27-0.13-0.53-0.22-0.78c-0.3,4.71-2.1,7.97-3.22,9.56
				C20.5,21.55,21.88,16.96,21.12,13.52z"/>
			<path class="st7" d="M11.13,13.84c0.29,0.38,1.23,1.14,1.78,0.7c0.55-0.44,0.58-1.79,1.01-2.39c0.42-0.6,1.43-0.89,1.25-1.48
				c-0.18-0.59-1.58-1.4-2.35-0.74c-0.77,0.65-1.04,1.77-1.41,2.12C11.02,12.4,10.78,13.39,11.13,13.84z"/>
		</g>
		<g>
			<path class="st9" d="M11.4,20.72c1.14,3.65,0.03,8.78-3.01,9.73c-3.04,0.95-6.87-2.64-8.01-6.29s0.4-7.38,3.45-8.33
				C6.87,14.88,10.26,17.07,11.4,20.72z"/>
			<path class="st2" d="M11.4,20.72c-0.09-0.28-0.19-0.55-0.3-0.82c0.11,5.06-1.53,8.69-2.58,10.49
				C11.46,29.34,12.52,24.32,11.4,20.72z"/>
			<path class="st7" d="M0.76,21.96c0.34,0.38,1.41,1.1,1.96,0.58c0.55-0.52,0.46-1.96,0.86-2.64c0.4-0.67,1.44-1.07,1.2-1.69
				s-1.81-1.35-2.58-0.58s-0.95,1.99-1.32,2.39C0.52,20.43,0.36,21.51,0.76,21.96z"/>
		</g>
		<g>
			<path class="st9" d="M26.88,24.65c-0.87,3.46-4.25,7.01-7.14,6.28s-4.19-5.45-3.31-8.91s3.92-5.68,6.81-4.95
				C26.12,17.79,27.76,21.19,26.88,24.65z"/>
			<path class="st2" d="M26.88,24.65c0.07-0.27,0.12-0.53,0.16-0.8c-2.38,4.08-5.45,6.18-7.17,7.1
				C22.73,31.55,26.02,28.07,26.88,24.65z"/>
			<path class="st7" d="M17.81,20.46c0.09,0.47,0.59,1.57,1.28,1.42c0.69-0.15,1.32-1.34,1.97-1.68s1.67-0.15,1.77-0.76
				c0.1-0.61-0.78-1.96-1.77-1.72c-0.98,0.24-1.73,1.12-2.21,1.26S17.71,19.9,17.81,20.46z"/>
		</g>
	</g>
</g>
<g>
</g>
<g>
</g>
<g>
</g>
<g>
</g>
<g>
</g>
<g>
</g>
</svg>
