<?xml version="1.0" encoding="utf-8"?>
<!-- Generator: Adobe Illustrator 23.0.3, SVG Export Plug-In . SVG Version: 6.00 Build 0)  -->
<svg version="1.1" id="Layer_1" xmlns="http://www.w3.org/2000/svg" xmlns:xlink="http://www.w3.org/1999/xlink" x="0px" y="0px"
	 viewBox="0 0 110.11 73.75" style="enable-background:new 0 0 110.11 73.75;" xml:space="preserve">
<style type="text/css">
	.st0{opacity:0.53;}
	.st1{fill:#2BB673;}
	.st2{fill:#F7941D;}
	.st3{fill:#808285;}
	.st4{fill:#1B75BC;}
	.st5{fill:#27AAE1;}
	.st6{fill:#414042;}
	.st7{fill:#939598;}
	.st8{fill:#939598;stroke:#000000;stroke-width:0.25;stroke-miterlimit:10;}
	.st9{fill:#5B869A;stroke:#000000;stroke-width:0.25;stroke-miterlimit:10;}
	.st10{opacity:0.47;}
</style>
<g>
	<g>
		<ellipse class="st0" cx="56.82" cy="65.91" rx="49.26" ry="5.67"/>
		<g>
			<rect class="st1" width="64.91" height="45.51"/>
			<path class="st2" d="M72.4,46.55V13.96h23.92c0,0,6.85,0.39,6.85,5.56v32.19h-9.96L72.4,46.55z"/>
			<path class="st3" d="M101.37,46.8v4.91h-7.71c-1.77-3.18-5.36-3.47-7.28-3.37V46.8H11.64v8.47h72.79h1.94h19.01v-0.19v-3.36V46.8
				H101.37z"/>
			<rect x="66.33" y="18.68" class="st4" width="5.14" height="27.35"/>
			<path class="st5" d="M71.7,60.57H53.56c-0.39,0-0.71-0.32-0.71-0.71v-8.27c0-0.39,0.32-0.71,0.71-0.71H71.7
				c0.39,0,0.71,0.32,0.71,0.71v8.27C72.4,60.26,72.09,60.57,71.7,60.57z"/>
			<circle class="st6" cx="30.93" cy="58.93" r="10.18"/>
			<circle class="st6" cx="85.53" cy="58.93" r="10.18"/>
			<circle class="st7" cx="30.93" cy="58.93" r="4.65"/>
			<circle class="st8" cx="30.93" cy="58.93" r="3.72"/>
			<circle class="st7" cx="85.53" cy="58.93" r="4.65"/>
			<circle class="st8" cx="85.53" cy="58.93" r="3.72"/>
			<path class="st9" d="M89.25,18.1v13.77h11.31V20.91c0,0,0.13-2.23-2.91-2.81H89.25z"/>
		</g>
	</g>
	<path class="st10" d="M0,20.39c0,0,4.32,17.13,10.15,19.04c5.83,1.92,34.83,3.17,44.17,3.33c9.33,0.17,10.59,2.52,10.59,2.52H0
		V20.39z"/>
</g>
<g>
</g>
<g>
</g>
<g>
</g>
<g>
</g>
<g>
</g>
<g>
</g>
</svg>
