<?xml version="1.0" encoding="utf-8"?>
<!-- Generator: Adobe Illustrator 23.0.3, SVG Export Plug-In . SVG Version: 6.00 Build 0)  -->
<svg version="1.1" id="Layer_1" xmlns="http://www.w3.org/2000/svg" xmlns:xlink="http://www.w3.org/1999/xlink" x="0px" y="0px"
	 viewBox="0 0 110.11 73.75" style="enable-background:new 0 0 110.11 73.75;" xml:space="preserve">
<style type="text/css">
	.st0{opacity:0.47;}
	.st1{fill:#726E87;}
	.st2{fill:#5B869A;}
	.st3{fill:#414042;}
	.st4{fill:#BFB8A9;}
	.st5{fill:#FBB040;}
	.st6{fill:#BCBEC0;}
	.st7{fill:#BE1E2D;}
</style>
<g>
	<ellipse class="st0" cx="58.45" cy="49.36" rx="31.17" ry="3.06"/>
	<g>
		<path class="st1" d="M24.17,39.92c0,0-1.45,4.9,4.36,6.12c5.82,1.22,18.45,0.99,18.45,0.99l30.84,0.02l7.73-0.86l5.89-0.31
			c0,0,0.77-6.12,0-8.5s-0.84-3.37-6.43-5.05c-5.59-1.68-8.42-2.37-8.65-2.83c-0.23-0.46-6.35-7.27-8.11-8.19
			c-1.76-0.92-2.07-1.45-7.96-1.84c-5.89-0.38-22.88,0.08-24.49,0.46c-1.61,0.38-4.97,0.61-6.12,6.12c0,0-0.54,4.9-0.61,5.74
			C29.06,31.8,25.31,32.72,24.17,39.92z"/>
		<path class="st2" d="M50.42,21.7l3.44,8.65h20.13c0,0-2.76-3.83-4.67-5.66c-1.91-1.84-4.75-2.6-9.34-2.98
			C55.39,21.32,50.42,21.7,50.42,21.7z"/>
		<path class="st2" d="M37.79,21.53c0,0-3.75,0.17-4.52,3.23c-0.77,3.06-0.61,5.59-0.61,5.59h18.22l-2.3-8.82H37.79z"/>
		<path class="st3" d="M55.98,33.71h-4.56c-0.3,0-0.54-0.24-0.54-0.54v-0.9c0-0.3,0.24-0.54,0.54-0.54h4.56
			c0.3,0,0.54,0.24,0.54,0.54v0.9C56.52,33.47,56.27,33.71,55.98,33.71z"/>
		<path class="st3" d="M85.55,46.19l2.67-0.14c0.02-0.22,0.06-0.43,0.06-0.65c0-4.73-3.56-8.57-7.96-8.57s-7.96,3.84-7.96,8.57
			c0,0.56,0.06,1.11,0.15,1.65l5.31,0L85.55,46.19z"/>
		<path class="st3" d="M38.12,36.68c-4.56,0-8.25,3.77-8.25,8.42c0,0.41,0.06,0.8,0.12,1.2c5.2,0.78,13.51,0.77,16.14,0.75
			c0.15-0.63,0.24-1.28,0.24-1.95C46.37,40.45,42.68,36.68,38.12,36.68z"/>
		<circle cx="37.79" cy="44.94" r="6.54"/>
		<circle cx="80.32" cy="44.94" r="6.54"/>
		<circle class="st4" cx="37.79" cy="44.94" r="4.41"/>
		<circle class="st4" cx="80.32" cy="44.94" r="4.41"/>
		<path class="st5" d="M91.56,37.84c0,0-3.26-0.6-3.28,0.88c-0.03,1.48-0.18,2.35,1.4,2.35c1.58,0,2.1,0,2.1,0s0.56,0,0.56-0.54
			c0-0.54,0-2.13,0-2.13S92.29,37.93,91.56,37.84z"/>
		<path class="st6" d="M93.42,47.05h-4.41c-0.19,0-0.35-0.16-0.35-0.35v-4.07c0-0.19,0.16-0.35,0.35-0.35h4.41
			c0.19,0,0.35,0.16,0.35,0.35v4.07C93.76,46.9,93.61,47.05,93.42,47.05z"/>
		<path class="st6" d="M29.33,47.9h-6.6c-0.19,0-0.35-0.16-0.35-0.35v-4.41c0-0.19,0.16-0.35,0.35-0.35h6.6
			c0.19,0,0.35,0.16,0.35,0.35v4.41C29.68,47.75,29.52,47.9,29.33,47.9z"/>
		<path class="st7" d="M28.15,36.83v-1.12c0,0,0-0.66-0.36-0.71c-0.36-0.05-2.06,0-2.06,0s-0.6,1.27-0.87,2.02
			C24.59,37.76,28.15,36.83,28.15,36.83z"/>
		<path class="st5" d="M24,40.53h2.92c0,0,0.97,0.13,1.02-0.64c0.05-0.77,0.2-3.06,0.2-3.06l-3.28,0.18
			C24.86,37.01,24.2,38.56,24,40.53z"/>
	</g>
</g>
<g>
</g>
<g>
</g>
<g>
</g>
<g>
</g>
<g>
</g>
<g>
</g>
</svg>
