<?xml version="1.0" encoding="utf-8"?>
<!-- Generator: Adobe Illustrator 23.0.3, SVG Export Plug-In . SVG Version: 6.00 Build 0)  -->
<svg version="1.1" id="Layer_1" xmlns="http://www.w3.org/2000/svg" xmlns:xlink="http://www.w3.org/1999/xlink" x="0px" y="0px"
	 viewBox="0 0 759.4 195.5" style="enable-background:new 0 0 759.4 195.5;" xml:space="preserve">
<style type="text/css">
	.st0{fill:#F1EFEC;}
	.st1{fill:#40413F;}
	.st2{opacity:0.38;fill:#FFFFFF;enable-background:new    ;}
	.st3{opacity:0.65;fill:#FFFFFF;enable-background:new    ;}
	.st4{opacity:0.21;fill:#FFFFFF;enable-background:new    ;}
	.st5{opacity:0.87;enable-background:new    ;}
	.st6{opacity:0.11;enable-background:new    ;}
	.st7{fill:#9E1C20;}
	.st8{opacity:0.88;fill:#FFFFFF;enable-background:new    ;}
	.st9{fill:#6F4E2F;}
	.st10{fill:#BAD27F;}
	.st11{fill:#B8B9B9;}
	.st12{fill:#C2AB94;}
	.st13{fill:#3C2415;}
	.st14{fill:#3D3E4D;}
	.st15{opacity:0.21;enable-background:new    ;}
	.st16{fill:#FFDE17;}
	.st17{opacity:0.86;enable-background:new    ;}
	.st18{fill:#D2C9B2;}
	.st19{fill:#494046;}
	.st20{fill:#74574D;}
	.st21{fill:#BAA188;}
	.st22{fill:#373B40;}
	.st23{fill:#BFB8A9;}
	.st24{fill:#2A323F;}
	.st25{fill:#7A5960;}
	.st26{fill:#A49788;}
	.st27{opacity:0.8;fill:#FFFFFF;enable-background:new    ;}
	.st28{opacity:0.9;fill:#FFFFFF;enable-background:new    ;}
	.st29{opacity:0.3;fill:#FFFFFF;enable-background:new    ;}
	.st30{opacity:0.39;fill:#FFFFFF;enable-background:new    ;}
	.st31{opacity:0.81;fill:#FFFFFF;enable-background:new    ;}
	.st32{opacity:0.98;fill:#FFFFFF;enable-background:new    ;}
	.st33{fill:none;stroke:#FFFFFF;stroke-width:0.5;stroke-linecap:round;stroke-miterlimit:10;}
	.st34{fill:none;stroke:#FFFFFF;stroke-width:0.25;stroke-linecap:round;stroke-miterlimit:10;}
	.st35{fill:#FFFFFF;}
	.st36{fill:none;stroke:#A7A9AC;stroke-width:0.25;stroke-miterlimit:10;}
	.st37{fill:#6B5A5A;}
	.st38{opacity:0.19;fill:#FFFFFF;enable-background:new    ;}
	.st39{opacity:0.32;fill:#FFFFFF;enable-background:new    ;}
	.st40{opacity:0.29;fill:#FFFFFF;enable-background:new    ;}
	.st41{fill:none;stroke:#000000;stroke-width:0.5;stroke-linecap:round;stroke-miterlimit:10;}
	.st42{opacity:0.27;fill:#FFFFFF;enable-background:new    ;}
	.st43{opacity:0.2;fill:#FFFFFF;enable-background:new    ;}
	.st44{fill:#FFFFFF;stroke:#58595B;stroke-miterlimit:10;}
	.st45{opacity:0.16;enable-background:new    ;}
	.st46{opacity:0.25;enable-background:new    ;}
	.st47{fill:#58595B;}
	.st48{fill:#414042;}
	.st49{opacity:0.14;enable-background:new    ;}
	.st50{opacity:0.24;enable-background:new    ;}
	.st51{fill:#999A9A;}
	.st52{fill:#DBDADD;}
	.st53{fill:#939598;}
	.st54{fill:#006838;}
	.st55{fill:#808285;}
	.st56{opacity:0.12;enable-background:new    ;}
	.st57{opacity:0.43;enable-background:new    ;}
	.st58{opacity:0.44;fill:#FFFFFF;enable-background:new    ;}
	.st59{opacity:0.31;fill:#FFFFFF;enable-background:new    ;}
	.st60{opacity:0.36;enable-background:new    ;}
	.st61{fill:#796666;}
	.st62{fill:#5B869A;}
	.st63{fill:none;stroke:#FFFFFF;stroke-width:0.5;stroke-miterlimit:10;}
	.st64{fill:#AFABA1;}
	.st65{fill:#5B869A;stroke:#FFFFFF;stroke-width:0.5;stroke-miterlimit:10;}
	.st66{opacity:0.54;enable-background:new    ;}
	.st67{opacity:0.28;fill:#FFFFFF;enable-background:new    ;}
	.st68{opacity:0.22;fill:#FFFFFF;enable-background:new    ;}
	.st69{fill:#544B4D;}
	.st70{opacity:0.62;enable-background:new    ;}
	.st71{opacity:0.17;fill:#FFFFFF;enable-background:new    ;}
	.st72{opacity:0.36;fill:#FFFFFF;enable-background:new    ;}
	.st73{opacity:0.23;fill:#FFFFFF;enable-background:new    ;}
	.st74{opacity:0.15;fill:#FFFFFF;enable-background:new    ;}
	.st75{opacity:0.64;enable-background:new    ;}
	.st76{fill:#79854A;}
	.st77{fill:#4D3F3F;}
	.st78{opacity:0.68;enable-background:new    ;}
	.st79{fill:#748470;}
	.st80{opacity:5.000000e-02;fill:#FFFFFF;enable-background:new    ;}
	.st81{opacity:0.35;fill:#FFFFFF;enable-background:new    ;}
	.st82{fill:#897769;}
	.st83{fill:#574E3E;}
	.st84{fill:#EAF3F6;}
	.st85{fill:none;stroke:#BCBEC0;stroke-width:0.5;stroke-miterlimit:10;}
	.st86{fill:none;stroke:#A7A9AC;stroke-width:0.5;stroke-miterlimit:10;}
	.st87{fill:#373B40;stroke:#BCBEC0;stroke-width:0.5;stroke-miterlimit:10;}
	.st88{fill:#FFFFFF;stroke:#BCBEC0;stroke-width:0.5;stroke-miterlimit:10;}
	.st89{opacity:0.33;fill:#FFFFFF;enable-background:new    ;}
	.st90{fill:none;stroke:#414042;stroke-width:0.5;stroke-linecap:round;stroke-miterlimit:10;}
	.st91{fill:#1B75BC;}
	.st92{fill:#F7941D;}
	.st93{fill:#FED09E;}
	.st94{opacity:0.51;fill:#F7941D;enable-background:new    ;}
	.st95{fill:#FCBB76;}
	.st96{fill:#373B40;stroke:#FFFFFF;stroke-miterlimit:10;}
	.st97{fill:none;stroke:#FFFFFF;stroke-miterlimit:10;}
	.st98{fill:#C9C2B3;}
	.st99{fill:#FFFFFF;stroke:#A7A9AC;stroke-width:0.25;stroke-miterlimit:10;}
	.st100{opacity:0.66;fill:#FFFFFF;enable-background:new    ;}
	.st101{fill:#AD4D4C;}
	.st102{fill:#D1D3D4;}
	.st103{opacity:0.89;enable-background:new    ;}
	.st104{fill:#373B40;stroke:#FFFFFF;stroke-width:0.5;stroke-miterlimit:10;}
	.st105{opacity:0.57;fill:#FFFFFF;enable-background:new    ;}
	.st106{opacity:0.42;fill:#FFFFFF;enable-background:new    ;}
	.st107{opacity:0.5;fill:#FFFFFF;enable-background:new    ;}
	.st108{opacity:0.43;fill:#FFFFFF;enable-background:new    ;}
</style>
<g>
	<path class="st0" d="M671.8,40.4c5.9-4.7,3.4-19.6,3.4-19.6c-0.8-6.1-17-11.1-22-10.8s-15.6,2.8-18.6,7.1c-3.5,4.9-3,17.9-1,20.8
		c4,5.6,15.7,9.2,17,13.7c0.3,3.8-1.8,66.4-1.8,66.4h0.1l-8,18.7l25.5,0.4l-9.2-19.1c0,0-0.4-62.4-0.2-66.8
		C657.1,48.3,665.5,45.4,671.8,40.4z"/>
	<polygon class="st1" points="646.9,122.8 659.5,122.8 666.4,137.2 641,136.8 	"/>
	<polygon class="st1" points="648.4,119.3 657.8,119.3 659,121.7 647.4,121.7 	"/>
	<polygon class="st2" points="648.9,122.8 644.2,136.8 641,136.8 646.9,122.8 	"/>
	<polygon class="st3" points="652,122.8 650.6,136.8 644.2,136.8 648.9,122.8 	"/>
	<polygon class="st4" points="656.3,122.8 659.9,137.1 650.6,136.8 652,122.8 	"/>
	<polygon class="st5" points="658.4,122.8 664.2,137.1 666.4,137.2 659.5,122.8 	"/>
	<path class="st6" d="M640.1,13.3c0,0-5,10.7-2.3,16.3s7.9,12.8,11.2,15.4c3.3,2.7,4.4,9.5,4.3,12s-1.2,57.6-1.2,57.6v5.9h-3.1
		l1.7-68.9c0,0-0.6-1.8-2.8-3.3s-10.8-6.4-13.1-9s-3.2-6.8-2.8-13.9S635.8,14.4,640.1,13.3z"/>
	<path class="st7" d="M632.5,22.1l-0.3,1.3l43.3,0.4c0,0-0.2-1-0.2-1.3C675.3,22.4,632.5,22.1,632.5,22.1z"/>
	<path class="st8" d="M654.8,15c0,0,10.2,2.8,13.5,5.8s6.2,1.2,6.2,1.2s-0.2-3.5-5.5-5.9c-5.3-2.4-9.8-4.3-13.1-4.6
		C652.5,11.3,653.8,14.8,654.8,15z"/>
	<path class="st7" d="M675.3,32.9H632c0,0,0.3,0.9,0.4,1.4s42.6,0,42.6,0L675.3,32.9z"/>
	<g>
		<path class="st7" d="M645.1,28.1c0-0.7-0.1-1.4-0.1-2h0c-0.2,0.5-0.4,1.1-0.6,1.8l-0.8,2.3h-0.5l-0.8-2.2
			c-0.2-0.7-0.4-1.3-0.5-1.8h0c0,0.6,0,1.4-0.1,2.1l-0.1,2H641l0.3-4.7h0.8l0.8,2.3c0.2,0.6,0.4,1.1,0.5,1.6h0
			c0.1-0.5,0.3-1,0.5-1.6l0.8-2.3h0.8l0.3,4.7h-0.6L645.1,28.1z"/>
		<path class="st7" d="M647.4,28.7l-0.5,1.5h-0.6l1.6-4.7h0.7l1.6,4.7h-0.7l-0.5-1.5C649.1,28.7,647.4,28.7,647.4,28.7z M648.9,28.3
			l-0.5-1.4c-0.1-0.3-0.2-0.6-0.2-0.9h0c-0.1,0.3-0.2,0.6-0.2,0.9l-0.5,1.4H648.9z"/>
		<path class="st7" d="M651.3,25.5v2.8c0,1,0.5,1.5,1.1,1.5c0.7,0,1.1-0.5,1.1-1.5v-2.8h0.6v2.7c0,1.4-0.8,2-1.8,2
			c-1,0-1.7-0.5-1.7-2v-2.8H651.3z"/>
		<path class="st7" d="M659.2,28.1c0-0.7-0.1-1.4-0.1-2h0c-0.2,0.5-0.4,1.1-0.6,1.8l-0.8,2.3h-0.5l-0.8-2.2
			c-0.2-0.7-0.4-1.3-0.5-1.8h0c0,0.6,0,1.4-0.1,2.1l-0.1,2h-0.6l0.3-4.7h0.8l0.8,2.3c0.2,0.6,0.4,1.1,0.5,1.6h0
			c0.1-0.5,0.3-1,0.5-1.6l0.8-2.3h0.8l0.3,4.7h-0.6L659.2,28.1z"/>
		<path class="st7" d="M663.3,28h-1.8v1.7h2v0.5h-2.6v-4.7h2.5V26h-1.9v1.5h1.8L663.3,28L663.3,28z"/>
		<path class="st7" d="M666.7,28h-1.8v1.7h2v0.5h-2.6v-4.7h2.5V26h-1.9v1.5h1.8L666.7,28L666.7,28z"/>
	</g>
</g>
<g>
	<rect x="546" y="103.9" class="st9" width="4.4" height="17.4"/>
	<ellipse class="st10" cx="547.5" cy="84.5" rx="17.9" ry="23.6"/>
</g>
<rect y="150.5" class="st11" width="759.4" height="9.1"/>
<g>
	<rect x="440.3" y="106.4" class="st12" width="133.8" height="44.1"/>
	<rect x="440.5" y="147.9" class="st13" width="36.7" height="2.5"/>
	<rect x="477.3" y="124.5" class="st14" width="60.8" height="26"/>
	<rect x="461.3" y="123.7" class="st15" width="16" height="26.7"/>
	<rect x="463.6" y="124.8" class="st16" width="11.5" height="23.1"/>
	<rect x="538.3" y="147.9" class="st13" width="35.8" height="2.5"/>
	<rect x="538.1" y="123.7" class="st15" width="14.6" height="26.7"/>
	<polygon class="st17" points="574,122.5 552.8,125.8 461.2,125.8 440.2,122.3 440.2,120 574,120 	"/>
	<g>
		<g>
			<g>
				<path class="st7" d="M541,85.4L541,85.4L541,85.4c0,0.3,0.1,0.7,0.1,1s0,0.7-0.1,1v17.4h-7.4V79C537.4,79.5,540.4,82.1,541,85.4
					z"/>
				<path class="st18" d="M539.3,86.3L539.3,86.3L539.3,86.3c0,0.3,0.1,0.6,0.1,0.9s0,0.6-0.1,0.9v16.6h-5.8V80.1
					C536.5,80.6,538.9,83.2,539.3,86.3z"/>
			</g>
			<g>
				<path class="st7" d="M547.4,91.7L547.4,91.7L547.4,91.7c0,0.3,0.1,0.5,0.1,0.7s0,0.5-0.1,0.7v12.3h-6.5V87.1
					C544.3,87.5,547,89.4,547.4,91.7z"/>
				<path class="st18" d="M546,92.3L546,92.3L546,92.3c0,0.2,0.1,0.4,0.1,0.7s0,0.4-0.1,0.7v11.8h-5.1V87.9
					C543.6,88.3,545.6,90.1,546,92.3z"/>
			</g>
		</g>
		<g>
			<g>
				<path class="st7" d="M477.4,84.4L477.4,84.4L477.4,84.4c0,0.3-0.1,0.7-0.1,1s0,0.7,0.1,1v17.4h7.4V77.9
					C480.9,78.4,477.9,81.1,477.4,84.4z"/>
				<path class="st18" d="M479,85.3L479,85.3L479,85.3c0,0.3-0.1,0.6-0.1,0.9s0,0.6,0.1,0.9v16.6h5.8V79.1
					C481.8,79.6,479.4,82.1,479,85.3z"/>
			</g>
			<g>
				<path class="st7" d="M470.9,90.7L470.9,90.7L470.9,90.7c0,0.3-0.1,0.5-0.1,0.7s0,0.5,0.1,0.7v12.3h6.5V86.1
					C474,86.4,471.4,88.3,470.9,90.7z"/>
				<path class="st18" d="M472.4,91.3L472.4,91.3L472.4,91.3c0,0.2-0.1,0.4-0.1,0.7c0,0.2,0,0.4,0.1,0.7v11.8h5.1V86.9
					C474.8,87.3,472.7,89,472.4,91.3z"/>
			</g>
		</g>
		<g>
			<g>
				<rect x="484.3" y="62.5" class="st19" width="49.3" height="40.9"/>
				<rect x="487.9" y="66.1" class="st20" width="42.2" height="37.3"/>
				<rect x="490.8" y="68.7" class="st21" width="36.3" height="34.7"/>
				<g>
					<rect x="493.4" y="71.2" class="st22" width="31.1" height="32.2"/>
				</g>
				<g>
					<rect x="494.3" y="87.7" class="st23" width="14.8" height="15.2"/>
					<path class="st22" d="M509,87.8v15h-14.5v-15H509 M509.2,87.6H509h-14.5h-0.3v0.3v15v0.3h0.3H509h0.3v-0.3v-15V87.6L509.2,87.6
						z"/>
				</g>
				<g>
					<rect x="508.9" y="87.7" class="st23" width="14.8" height="15.2"/>
					<path class="st22" d="M523.5,87.8v15H509v-15H523.5 M523.8,87.6h-0.3H509h-0.3v0.3v15v0.3h0.3h14.5h0.3v-0.3v-15V87.6
						L523.8,87.6z"/>
				</g>
				<g>
					<rect x="494.3" y="72.8" class="st23" width="14.8" height="15.2"/>
					<path class="st22" d="M509,72.9v15h-14.5v-15H509 M509.2,72.6H509h-14.5h-0.3v0.3v15v0.3h0.3H509h0.3v-0.3v-15V72.6L509.2,72.6
						z"/>
				</g>
				<g>
					<rect x="508.9" y="72.8" class="st23" width="14.8" height="15.2"/>
					<path class="st22" d="M523.5,72.9v15H509v-15H523.5 M523.8,72.6h-0.3H509h-0.3v0.3v15v0.3h0.3h14.5h0.3v-0.3v-15V72.6
						L523.8,72.6z"/>
				</g>
			</g>
			<g>
				<g>
					<path class="st24" d="M516.2,85.5c-1.2,0-2.2-1-2.2-2.2c0-0.3,0-0.5,0.2-0.8l0.1-0.3l-0.3,0.1c-0.3,0.1-0.5,0.2-0.8,0.2
						c-1.2,0-2.2-1-2.2-2.2s1-2.2,2.2-2.2c0.3,0,0.5,0.1,0.8,0.1l0.2,0.1l-0.1-0.2c-0.1-0.2-0.1-0.4-0.1-0.7c0-1.2,1-2.2,2.2-2.2
						c1.2,0,2.2,1,2.2,2.2c0,0.2,0,0.4-0.1,0.7l-0.1,0.2l0.2-0.1c0.3-0.1,0.5-0.1,0.8-0.1c1.2,0,2.2,1,2.2,2.2s-1,2.2-2.2,2.2
						c-0.3,0-0.5-0.1-0.8-0.2l-0.3-0.1l0.1,0.3c0.1,0.3,0.2,0.5,0.2,0.8C518.5,84.5,517.5,85.5,516.2,85.5z M515.4,78.7
						c-0.1,0.4-0.4,0.8-0.8,0.9l-0.1,0v1.6l0.1,0c0.4,0.1,0.7,0.4,0.8,0.8l0,0.1h1.8l0-0.1c0.1-0.4,0.4-0.7,0.8-0.8l0.1,0v-1.7
						l-0.1,0c-0.4-0.1-0.8-0.5-0.8-0.9l0-0.1h-1.7L515.4,78.7z"/>
					<path class="st25" d="M516.2,75.3c1.2,0,2.1,0.9,2.1,2.1c0,0.2,0,0.4-0.1,0.6l-0.2,0.5l0.5-0.2c0.3-0.1,0.5-0.1,0.7-0.1
						c1.2,0,2.1,0.9,2.1,2.1s-0.9,2.1-2.1,2.1c-0.3,0-0.5-0.1-0.8-0.2L518,82l0.2,0.5c0.1,0.3,0.2,0.5,0.2,0.8
						c0,1.2-0.9,2.1-2.1,2.1s-2.1-0.9-2.1-2.1c0-0.3,0-0.5,0.2-0.8l0.2-0.5l-0.5,0.2c-0.3,0.1-0.5,0.2-0.8,0.2
						c-1.2,0-2.1-0.9-2.1-2.1s0.9-2.1,2.1-2.1c0.2,0,0.5,0,0.7,0.1l0.5,0.2l-0.2-0.5c-0.1-0.2-0.1-0.4-0.1-0.6
						C514.2,76.3,515.1,75.3,516.2,75.3 M515.3,82.3h0.2h1.6h0.2l0-0.2c0.1-0.3,0.4-0.6,0.7-0.7l0.2-0.1v-0.2v-1.5v-0.2l-0.2-0.1
						c-0.4-0.1-0.7-0.4-0.7-0.8l0-0.2H517h-1.5h-0.2l0,0.2c-0.1,0.4-0.4,0.7-0.8,0.8l-0.2,0.1v0.2v1.4v0.2l0.2,0.1
						c0.4,0.1,0.6,0.4,0.7,0.7L515.3,82.3 M516.2,75.1c-1.3,0-2.3,1.1-2.3,2.3c0,0.2,0,0.5,0.1,0.7c-0.3-0.1-0.5-0.2-0.8-0.2
						c-1.3,0-2.3,1.1-2.3,2.3s1,2.3,2.3,2.3c0.3,0,0.6-0.1,0.9-0.2c-0.1,0.3-0.2,0.6-0.2,0.9c0,1.3,1,2.3,2.3,2.3s2.3-1.1,2.3-2.3
						c0-0.3-0.1-0.6-0.2-0.9c0.3,0.1,0.5,0.2,0.9,0.2c1.3,0,2.3-1.1,2.3-2.3s-1-2.3-2.3-2.3c-0.3,0-0.5,0.1-0.8,0.2
						c0.1-0.2,0.1-0.4,0.1-0.7C518.6,76.1,517.5,75.1,516.2,75.1L516.2,75.1z M515.5,82c-0.1-0.4-0.5-0.8-0.9-0.9v-1.4
						c0.5-0.1,0.8-0.5,0.9-1h1.5c0.1,0.5,0.4,0.9,0.9,1v1.5c-0.4,0.1-0.8,0.5-0.9,0.9H515.5L515.5,82z"/>
				</g>
				<path class="st25" d="M519,77.6v-0.4c0,0,1.3-1.4,1.5-1.2c0.2,0.2-1,1.7-1,1.7H519z"/>
				<path class="st25" d="M519,82.9h0.5c0,0,1.4,1.3,1.2,1.5c-0.2,0.2-1.7-1-1.7-1V82.9z"/>
				<path class="st25" d="M513.7,82.9v0.4c0,0-1.3,1.4-1.5,1.2c-0.2-0.2,1-1.7,1-1.7H513.7z"/>
				<path class="st25" d="M513.8,77.6h-0.5c0,0-1.4-1.3-1.2-1.5c0.2-0.2,1.7,1,1.7,1V77.6z"/>
				<polygon class="st25" points="516,83.6 515.6,84.4 516,84.3 516,84.9 516.5,84.9 516.5,84.3 516.9,84.3 516.3,83.6 				"/>
				<polygon class="st25" points="516.4,77.2 516.9,76.4 516.5,76.5 516.5,75.9 516,75.9 516,76.5 515.6,76.5 516.1,77.2 				"/>
				<polygon class="st25" points="519.6,80.4 520.4,80.9 520.3,80.5 521,80.5 521,80 520.3,80 520.4,79.6 519.6,80.2 				"/>
				<polygon class="st25" points="512.8,80 512,79.6 512.1,80 511.5,80 511.5,80.4 512.1,80.4 512,80.8 512.8,80.3 				"/>
				<path class="st25" d="M517.3,82.5c0,0,0.7,0.3,0.5,1.2C517.2,83.5,517.2,83.1,517.3,82.5z"/>
				<path class="st25" d="M515.3,82.5c0,0-0.7,0.3-0.5,1.2C515.3,83.5,515.3,83.1,515.3,82.5z"/>
				<path class="st25" d="M518.4,79.4c0,0,0.3-0.7,1.2-0.5C519.3,79.4,518.9,79.4,518.4,79.4z"/>
				<path class="st25" d="M518.4,81.3c0,0,0.3,0.7,1.2,0.5C519.3,81.3,518.9,81.3,518.4,81.3z"/>
				<path class="st25" d="M515.3,78.3c0,0-0.7-0.3-0.5-1.2C515.3,77.3,515.3,77.7,515.3,78.3z"/>
				<path class="st25" d="M517.2,78.3c0,0,0.7-0.3,0.5-1.2C517.2,77.3,517.2,77.7,517.2,78.3z"/>
				<path class="st25" d="M514.1,81.3c0,0-0.3,0.7-1.2,0.5C513.2,81.3,513.6,81.3,514.1,81.3z"/>
				<path class="st25" d="M514.1,79.4c0,0-0.3-0.7-1.2-0.5C513.2,79.4,513.6,79.4,514.1,79.4z"/>
			</g>
			<g>
				<g>
					<path class="st24" d="M501.7,85.5c-1.2,0-2.2-1-2.2-2.2c0-0.3,0-0.5,0.2-0.8l0.1-0.3l-0.3,0.1c-0.3,0.1-0.5,0.2-0.8,0.2
						c-1.2,0-2.2-1-2.2-2.2s1-2.2,2.2-2.2c0.3,0,0.5,0.1,0.8,0.1l0.2,0.1l-0.1-0.2c-0.1-0.2-0.1-0.4-0.1-0.6c0-1.2,1-2.2,2.2-2.2
						s2.2,1,2.2,2.2c0,0.2,0,0.4-0.1,0.7l-0.1,0.2l0.2-0.1c0.3-0.1,0.5-0.1,0.8-0.1c1.2,0,2.2,1,2.2,2.2s-1,2.2-2.2,2.2
						c-0.3,0-0.5-0.1-0.8-0.2l-0.3-0.1l0.1,0.3c0.1,0.3,0.2,0.5,0.2,0.8C503.9,84.5,502.9,85.5,501.7,85.5z M500.8,78.7
						c-0.1,0.4-0.4,0.8-0.8,0.9l-0.1,0v1.6l0.1,0c0.4,0.1,0.7,0.4,0.8,0.8l0,0.1h1.8l0-0.1c0.1-0.4,0.4-0.7,0.8-0.8l0.1,0v-1.7
						l-0.1,0c-0.4-0.1-0.8-0.5-0.8-0.9l0-0.1h-1.7L500.8,78.7z"/>
					<path class="st25" d="M501.7,75.3c1.1,0,2.1,0.9,2.1,2.1c0,0.2,0,0.4-0.1,0.6l-0.1,0.5l0.5-0.2c0.3-0.1,0.5-0.1,0.7-0.1
						c1.1,0,2.1,0.9,2.1,2.1s-0.9,2.1-2.1,2.1c-0.3,0-0.5-0.1-0.8-0.2l-0.5-0.2l0.2,0.5c0.1,0.3,0.1,0.5,0.1,0.8
						c0,1.2-0.9,2.1-2.1,2.1s-2.1-0.9-2.1-2.1c0-0.3,0-0.5,0.1-0.8L500,82l-0.5,0.2c-0.3,0.1-0.5,0.2-0.8,0.2
						c-1.1,0-2.1-0.9-2.1-2.1s0.9-2.1,2.1-2.1c0.2,0,0.5,0,0.7,0.1l0.5,0.2l-0.1-0.5c-0.1-0.2-0.1-0.4-0.1-0.6
						C499.6,76.3,500.6,75.3,501.7,75.3 M500.7,82.3h0.2h1.6h0.2l0-0.2c0.1-0.3,0.4-0.6,0.7-0.7l0.2-0.1v-0.2v-1.5v-0.2l-0.2-0.1
						c-0.4-0.1-0.7-0.4-0.7-0.8l0-0.2h-0.2h-1.5h-0.2l0,0.2c-0.1,0.4-0.4,0.7-0.8,0.8l-0.2,0.1v0.2v1.4v0.2l0.2,0.1
						c0.4,0.1,0.6,0.4,0.7,0.7L500.7,82.3 M501.7,75.1c-1.3,0-2.3,1.1-2.3,2.3c0,0.2,0,0.5,0.1,0.7c-0.3-0.1-0.5-0.2-0.8-0.2
						c-1.3,0-2.3,1.1-2.3,2.3s1,2.3,2.3,2.3c0.3,0,0.6-0.1,0.9-0.2c-0.1,0.3-0.2,0.6-0.2,0.9c0,1.3,1,2.3,2.3,2.3s2.3-1.1,2.3-2.3
						c0-0.3-0.1-0.6-0.2-0.9c0.3,0.1,0.5,0.2,0.9,0.2c1.3,0,2.3-1.1,2.3-2.3s-1-2.3-2.3-2.3c-0.3,0-0.5,0.1-0.8,0.2
						c0.1-0.2,0.1-0.4,0.1-0.7C504,76.1,503,75.1,501.7,75.1L501.7,75.1z M500.9,82c-0.1-0.4-0.5-0.8-0.9-0.9v-1.4
						c0.5-0.1,0.9-0.5,0.9-1h1.5c0.1,0.5,0.4,0.9,0.9,1v1.5c-0.4,0.1-0.8,0.5-0.9,0.9H500.9L500.9,82z"/>
				</g>
				<path class="st25" d="M504.5,77.6v-0.4c0,0,1.4-1.4,1.5-1.2c0.2,0.2-1,1.7-1,1.7H504.5z"/>
				<path class="st25" d="M504.4,82.9h0.5c0,0,1.4,1.3,1.2,1.5s-1.7-1-1.7-1V82.9z"/>
				<path class="st25" d="M499.2,82.9v0.4c0,0-1.4,1.4-1.5,1.2c-0.2-0.2,1-1.7,1-1.7H499.2z"/>
				<path class="st25" d="M499.2,77.6h-0.5c0,0-1.4-1.3-1.2-1.5s1.7,1,1.7,1V77.6z"/>
				<polygon class="st25" points="501.5,83.6 501.1,84.4 501.5,84.3 501.5,84.9 501.9,84.9 501.9,84.3 502.3,84.3 501.8,83.6 				
					"/>
				<polygon class="st25" points="501.9,77.2 502.3,76.4 502,76.5 502,75.9 501.5,75.9 501.5,76.5 501.1,76.5 501.6,77.2 				"/>
				<polygon class="st25" points="505.1,80.4 505.9,80.9 505.8,80.5 506.4,80.5 506.4,80 505.8,80 505.8,79.6 505.1,80.2 				"/>
				<polygon class="st25" points="498.3,80 497.4,79.6 497.6,80 496.9,80 496.9,80.4 497.6,80.4 497.5,80.8 498.3,80.3 				"/>
				<path class="st25" d="M502.7,82.5c0,0,0.6,0.3,0.5,1.2C502.6,83.5,502.6,83.1,502.7,82.5z"/>
				<path class="st25" d="M500.7,82.5c0,0-0.6,0.3-0.5,1.2C500.8,83.5,500.8,83.1,500.7,82.5z"/>
				<path class="st25" d="M503.8,79.4c0,0,0.3-0.7,1.2-0.5C504.8,79.4,504.4,79.4,503.8,79.4z"/>
				<path class="st25" d="M503.8,81.3c0,0,0.3,0.7,1.2,0.5C504.8,81.3,504.4,81.3,503.8,81.3z"/>
				<path class="st25" d="M500.7,78.3c0,0-0.6-0.3-0.5-1.2C500.8,77.3,500.8,77.7,500.7,78.3z"/>
				<path class="st25" d="M502.7,78.3c0,0,0.6-0.3,0.5-1.2C502.6,77.3,502.6,77.7,502.7,78.3z"/>
				<path class="st25" d="M499.5,81.3c0,0-0.3,0.7-1.2,0.5C498.6,81.3,499,81.3,499.5,81.3z"/>
				<path class="st25" d="M499.5,79.4c0,0-0.3-0.7-1.2-0.5C498.6,79.4,499,79.4,499.5,79.4z"/>
			</g>
			<g>
				<g>
					<path class="st24" d="M501.7,100.5c-1.2,0-2.2-1-2.2-2.2c0-0.3,0-0.5,0.2-0.8l0.1-0.3l-0.3,0.1c-0.3,0.1-0.5,0.2-0.8,0.2
						c-1.2,0-2.2-1-2.2-2.2s1-2.2,2.2-2.2c0.3,0,0.5,0.1,0.8,0.1l0.2,0.1l-0.1-0.2c-0.1-0.2-0.1-0.4-0.1-0.6c0-1.2,1-2.2,2.2-2.2
						s2.2,1,2.2,2.2c0,0.2,0,0.4-0.1,0.7l-0.1,0.2l0.2-0.1c0.3-0.1,0.5-0.1,0.8-0.1c1.2,0,2.2,1,2.2,2.2s-1,2.2-2.2,2.2
						c-0.3,0-0.5-0.1-0.8-0.2l-0.3-0.1l0.1,0.3c0.1,0.3,0.2,0.5,0.2,0.8C503.9,99.5,502.9,100.5,501.7,100.5z M500.8,93.6
						c-0.1,0.4-0.4,0.8-0.8,0.9l-0.1,0v1.6l0.1,0c0.4,0.1,0.7,0.4,0.8,0.8l0,0.1h1.8l0-0.1c0.1-0.4,0.4-0.7,0.8-0.8l0.1,0v-1.7
						l-0.1,0c-0.4-0.1-0.8-0.5-0.8-0.9l0-0.1h-1.7L500.8,93.6z"/>
					<path class="st25" d="M501.7,90.3c1.1,0,2.1,0.9,2.1,2.1c0,0.2,0,0.4-0.1,0.6l-0.1,0.5l0.5-0.2c0.3-0.1,0.5-0.1,0.7-0.1
						c1.1,0,2.1,0.9,2.1,2.1s-0.9,2.1-2.1,2.1c-0.3,0-0.5-0.1-0.8-0.2l-0.5-0.2l0.2,0.5c0.1,0.3,0.1,0.5,0.1,0.8
						c0,1.2-0.9,2.1-2.1,2.1s-2.1-0.9-2.1-2.1c0-0.3,0-0.5,0.1-0.8L500,97l-0.5,0.2c-0.3,0.1-0.5,0.2-0.8,0.2
						c-1.1,0-2.1-0.9-2.1-2.1s0.9-2.1,2.1-2.1c0.2,0,0.5,0,0.7,0.1l0.5,0.2l-0.1-0.5c-0.1-0.2-0.1-0.4-0.1-0.6
						C499.6,91.2,500.6,90.3,501.7,90.3 M500.7,97.3h0.2h1.6h0.2l0-0.2c0.1-0.3,0.4-0.6,0.7-0.7l0.2-0.1v-0.2v-1.5v-0.2l-0.2-0.1
						c-0.4-0.1-0.7-0.4-0.7-0.8l0-0.2h-0.2h-1.5h-0.2l0,0.2c-0.1,0.4-0.4,0.7-0.8,0.8l-0.2,0.1v0.2v1.4v0.2l0.2,0.1
						c0.4,0.1,0.6,0.4,0.7,0.7L500.7,97.3 M501.7,90c-1.3,0-2.3,1.1-2.3,2.3c0,0.2,0,0.5,0.1,0.7c-0.3-0.1-0.5-0.2-0.8-0.2
						c-1.3,0-2.3,1.1-2.3,2.3s1,2.3,2.3,2.3c0.3,0,0.6-0.1,0.9-0.2c-0.1,0.3-0.2,0.6-0.2,0.9c0,1.3,1,2.3,2.3,2.3s2.3-1.1,2.3-2.3
						c0-0.3-0.1-0.6-0.2-0.9c0.3,0.1,0.5,0.2,0.9,0.2c1.3,0,2.3-1.1,2.3-2.3s-1-2.3-2.3-2.3c-0.3,0-0.5,0.1-0.8,0.2
						c0.1-0.2,0.1-0.4,0.1-0.7C504,91.1,503,90,501.7,90L501.7,90z M500.9,97c-0.1-0.4-0.5-0.8-0.9-0.9v-1.4c0.5-0.1,0.9-0.5,0.9-1
						h1.5c0.1,0.5,0.4,0.9,0.9,1v1.5c-0.4,0.1-0.8,0.5-0.9,0.9H500.9L500.9,97z"/>
				</g>
				<path class="st25" d="M504.5,92.5v-0.4c0,0,1.4-1.4,1.5-1.2s-1,1.7-1,1.7H504.5z"/>
				<path class="st25" d="M504.4,97.9h0.5c0,0,1.4,1.3,1.2,1.5s-1.7-1-1.7-1V97.9z"/>
				<path class="st25" d="M499.2,97.8v0.4c0,0-1.4,1.4-1.5,1.2c-0.2-0.2,1-1.7,1-1.7H499.2z"/>
				<path class="st25" d="M499.2,92.5h-0.5c0,0-1.4-1.3-1.2-1.5s1.7,1,1.7,1V92.5z"/>
				<polygon class="st25" points="501.5,98.5 501.1,99.4 501.5,99.2 501.5,99.9 501.9,99.9 501.9,99.2 502.3,99.3 501.8,98.5 				
					"/>
				<polygon class="st25" points="501.9,92.2 502.3,91.4 502,91.5 502,90.8 501.5,90.8 501.5,91.5 501.1,91.4 501.6,92.2 				"/>
				<polygon class="st25" points="505.1,95.4 505.9,95.8 505.8,95.5 506.4,95.5 506.4,95 505.8,95 505.8,94.6 505.1,95.1 				"/>
				<polygon class="st25" points="498.3,95 497.4,94.6 497.6,94.9 496.9,94.9 496.9,95.4 497.6,95.4 497.5,95.8 498.3,95.3 				"/>
				<path class="st25" d="M502.7,97.5c0,0,0.6,0.3,0.5,1.2C502.6,98.4,502.6,98,502.7,97.5z"/>
				<path class="st25" d="M500.7,97.5c0,0-0.6,0.3-0.5,1.2C500.8,98.4,500.8,98,500.7,97.5z"/>
				<path class="st25" d="M503.8,94.3c0,0,0.3-0.7,1.2-0.5C504.8,94.4,504.4,94.4,503.8,94.3z"/>
				<path class="st25" d="M503.8,96.3c0,0,0.3,0.7,1.2,0.5C504.8,96.3,504.4,96.3,503.8,96.3z"/>
				<path class="st25" d="M500.7,93.2c0,0-0.6-0.3-0.5-1.2C500.8,92.3,500.8,92.7,500.7,93.2z"/>
				<path class="st25" d="M502.7,93.2c0,0,0.6-0.3,0.5-1.2C502.6,92.3,502.6,92.7,502.7,93.2z"/>
				<path class="st25" d="M499.5,96.3c0,0-0.3,0.7-1.2,0.5C498.6,96.3,499,96.3,499.5,96.3z"/>
				<path class="st25" d="M499.5,94.3c0,0-0.3-0.7-1.2-0.5C498.6,94.4,499,94.4,499.5,94.3z"/>
			</g>
			<g>
				<g>
					<path class="st24" d="M516.2,100.5c-1.2,0-2.2-1-2.2-2.2c0-0.3,0-0.5,0.2-0.8l0.1-0.3l-0.3,0.1c-0.3,0.1-0.5,0.2-0.8,0.2
						c-1.2,0-2.2-1-2.2-2.2s1-2.2,2.2-2.2c0.3,0,0.5,0.1,0.8,0.1l0.2,0.1l-0.1-0.2c-0.1-0.2-0.1-0.4-0.1-0.7c0-1.2,1-2.2,2.2-2.2
						c1.2,0,2.2,1,2.2,2.2c0,0.2,0,0.4-0.1,0.7l-0.1,0.2l0.2-0.1c0.3-0.1,0.5-0.1,0.8-0.1c1.2,0,2.2,1,2.2,2.2s-1,2.2-2.2,2.2
						c-0.3,0-0.5-0.1-0.8-0.2l-0.3-0.1l0.1,0.3c0.1,0.3,0.2,0.5,0.2,0.8C518.5,99.5,517.5,100.5,516.2,100.5z M515.4,93.6
						c-0.1,0.4-0.4,0.8-0.8,0.9l-0.1,0v1.6l0.1,0c0.4,0.1,0.7,0.4,0.8,0.8l0,0.1h1.8l0-0.1c0.1-0.4,0.4-0.7,0.8-0.8l0.1,0v-1.7
						l-0.1,0c-0.4-0.1-0.8-0.5-0.8-0.9l0-0.1h-1.7L515.4,93.6z"/>
					<path class="st25" d="M516.2,90.3c1.2,0,2.1,0.9,2.1,2.1c0,0.2,0,0.4-0.1,0.6l-0.2,0.5l0.5-0.2c0.3-0.1,0.5-0.1,0.7-0.1
						c1.2,0,2.1,0.9,2.1,2.1s-0.9,2.1-2.1,2.1c-0.3,0-0.5-0.1-0.8-0.2L518,97l0.2,0.5c0.1,0.3,0.2,0.5,0.2,0.8
						c0,1.2-0.9,2.1-2.1,2.1s-2.1-0.9-2.1-2.1c0-0.3,0-0.5,0.2-0.8l0.2-0.5l-0.5,0.2c-0.3,0.1-0.5,0.2-0.8,0.2
						c-1.2,0-2.1-0.9-2.1-2.1s0.9-2.1,2.1-2.1c0.2,0,0.5,0,0.7,0.1l0.5,0.2l-0.2-0.5c-0.1-0.2-0.1-0.4-0.1-0.6
						C514.2,91.2,515.1,90.3,516.2,90.3 M515.3,97.3h0.2h1.6h0.2l0-0.2c0.1-0.3,0.4-0.6,0.7-0.7l0.2-0.1v-0.2v-1.5v-0.2l-0.2-0.1
						c-0.4-0.1-0.7-0.4-0.7-0.8l0-0.2H517h-1.5h-0.2l0,0.2c-0.1,0.4-0.4,0.7-0.8,0.8l-0.2,0.1v0.2v1.4v0.2l0.2,0.1
						c0.4,0.1,0.6,0.4,0.7,0.7L515.3,97.3 M516.2,90c-1.3,0-2.3,1.1-2.3,2.3c0,0.2,0,0.5,0.1,0.7c-0.3-0.1-0.5-0.2-0.8-0.2
						c-1.3,0-2.3,1.1-2.3,2.3s1,2.3,2.3,2.3c0.3,0,0.6-0.1,0.9-0.2c-0.1,0.3-0.2,0.6-0.2,0.9c0,1.3,1,2.3,2.3,2.3s2.3-1.1,2.3-2.3
						c0-0.3-0.1-0.6-0.2-0.9c0.3,0.1,0.5,0.2,0.9,0.2c1.3,0,2.3-1.1,2.3-2.3s-1-2.3-2.3-2.3c-0.3,0-0.5,0.1-0.8,0.2
						c0.1-0.2,0.1-0.4,0.1-0.7C518.6,91.1,517.5,90,516.2,90L516.2,90z M515.5,97c-0.1-0.4-0.5-0.8-0.9-0.9v-1.4
						c0.5-0.1,0.8-0.5,0.9-1h1.5c0.1,0.5,0.4,0.9,0.9,1v1.5c-0.4,0.1-0.8,0.5-0.9,0.9H515.5L515.5,97z"/>
				</g>
				<path class="st25" d="M519,92.5v-0.4c0,0,1.3-1.4,1.5-1.2c0.2,0.2-1,1.7-1,1.7H519z"/>
				<path class="st25" d="M519,97.9h0.5c0,0,1.4,1.3,1.2,1.5c-0.2,0.2-1.7-1-1.7-1V97.9z"/>
				<path class="st25" d="M513.7,97.8v0.4c0,0-1.3,1.4-1.5,1.2c-0.2-0.2,1-1.7,1-1.7H513.7z"/>
				<path class="st25" d="M513.8,92.5h-0.5c0,0-1.4-1.3-1.2-1.5c0.2-0.2,1.7,1,1.7,1V92.5z"/>
				<polygon class="st25" points="516,98.5 515.6,99.4 516,99.2 516,99.9 516.5,99.9 516.5,99.2 516.9,99.3 516.3,98.5 				"/>
				<polygon class="st25" points="516.4,92.2 516.9,91.4 516.5,91.5 516.5,90.8 516,90.8 516,91.5 515.6,91.4 516.1,92.2 				"/>
				<polygon class="st25" points="519.6,95.4 520.4,95.8 520.3,95.5 521,95.5 521,95 520.3,95 520.4,94.6 519.6,95.1 				"/>
				<polygon class="st25" points="512.8,95 512,94.6 512.1,94.9 511.5,94.9 511.5,95.4 512.1,95.4 512,95.8 512.8,95.3 				"/>
				<path class="st25" d="M517.3,97.5c0,0,0.7,0.3,0.5,1.2C517.2,98.4,517.2,98,517.3,97.5z"/>
				<path class="st25" d="M515.3,97.5c0,0-0.7,0.3-0.5,1.2C515.3,98.4,515.3,98,515.3,97.5z"/>
				<path class="st25" d="M518.4,94.3c0,0,0.3-0.7,1.2-0.5C519.3,94.4,518.9,94.4,518.4,94.3z"/>
				<path class="st25" d="M518.4,96.3c0,0,0.3,0.7,1.2,0.5C519.3,96.3,518.9,96.3,518.4,96.3z"/>
				<path class="st25" d="M515.3,93.2c0,0-0.7-0.3-0.5-1.2C515.3,92.3,515.3,92.7,515.3,93.2z"/>
				<path class="st25" d="M517.2,93.2c0,0,0.7-0.3,0.5-1.2C517.2,92.3,517.2,92.7,517.2,93.2z"/>
				<path class="st25" d="M514.1,96.3c0,0-0.3,0.7-1.2,0.5C513.2,96.3,513.6,96.3,514.1,96.3z"/>
				<path class="st25" d="M514.1,94.3c0,0-0.3-0.7-1.2-0.5C513.2,94.4,513.6,94.4,514.1,94.3z"/>
			</g>
		</g>
		<rect x="462.6" y="103.4" class="st12" width="90.3" height="21.3"/>
		<rect x="462.6" y="105.8" class="st7" width="90.3" height="0.6"/>
		<rect x="462.4" y="124.2" class="st7" width="90.5" height="0.6"/>
		<rect x="462.4" y="120.4" class="st7" width="90.5" height="0.6"/>
		<rect x="462.4" y="103.4" class="st7" width="90.5" height="0.6"/>
		<rect x="461.3" y="103.4" class="st26" width="1.3" height="21.4"/>
		<rect x="552.3" y="103.4" class="st26" width="1.3" height="21.3"/>
		<g>
			<circle class="st27" cx="465.2" cy="123.2" r="0.4"/>
			<circle class="st28" cx="466.6" cy="123.2" r="0.4"/>
			<circle class="st27" cx="468" cy="123.2" r="0.4"/>
			<circle class="st27" cx="469.4" cy="123.2" r="0.4"/>
			<circle class="st29" cx="470.8" cy="123.2" r="0.4"/>
			<circle class="st27" cx="472.2" cy="123.2" r="0.4"/>
			<circle class="st27" cx="473.7" cy="123.2" r="0.4"/>
			<circle class="st27" cx="475.1" cy="123.2" r="0.4"/>
			<circle class="st27" cx="476.5" cy="123.2" r="0.4"/>
			<circle class="st27" cx="477.9" cy="123.2" r="0.4"/>
			<circle class="st27" cx="479.3" cy="123.2" r="0.4"/>
			<circle class="st29" cx="480.6" cy="123.2" r="0.4"/>
			<circle class="st27" cx="482.3" cy="123.2" r="0.4"/>
			<circle class="st27" cx="483.7" cy="123.2" r="0.4"/>
			<circle class="st27" cx="485.1" cy="123.2" r="0.4"/>
			<circle class="st27" cx="486.5" cy="123.2" r="0.4"/>
			<circle class="st27" cx="487.9" cy="123.2" r="0.4"/>
			<circle class="st27" cx="489.3" cy="123.2" r="0.4"/>
			<circle class="st27" cx="490.8" cy="123.2" r="0.4"/>
			<circle class="st28" cx="492.2" cy="123.2" r="0.4"/>
			<circle class="st29" cx="493.5" cy="123.2" r="0.4"/>
			<circle class="st27" cx="495" cy="123.2" r="0.4"/>
			<circle class="st27" cx="496.4" cy="123.2" r="0.4"/>
			<circle class="st27" cx="497.8" cy="123.2" r="0.4"/>
			<circle class="st27" cx="499.2" cy="123.2" r="0.4"/>
			<circle class="st27" cx="500.6" cy="123.2" r="0.4"/>
			<circle class="st27" cx="502" cy="123.2" r="0.4"/>
			<circle class="st27" cx="503.4" cy="123.2" r="0.4"/>
			<circle class="st27" cx="504.8" cy="123.2" r="0.4"/>
			<circle class="st27" cx="506.2" cy="123.2" r="0.4"/>
			<circle class="st29" cx="507.7" cy="123.2" r="0.4"/>
			<circle class="st27" cx="509" cy="123.2" r="0.4"/>
			<circle class="st27" cx="510.4" cy="123.2" r="0.4"/>
			<path class="st27" d="M511.9,122.8c0.2,0,0.4,0.2,0.4,0.4s-0.2,0.4-0.4,0.4s-0.4-0.2-0.4-0.4S511.6,122.8,511.9,122.8z"/>
			<circle class="st28" cx="513.3" cy="123.2" r="0.4"/>
			<circle class="st27" cx="514.6" cy="123.2" r="0.4"/>
			<circle class="st27" cx="516.3" cy="123.2" r="0.4"/>
			<circle class="st27" cx="517.7" cy="123.2" r="0.4"/>
			<circle class="st27" cx="519.1" cy="123.2" r="0.4"/>
			<circle class="st27" cx="520.5" cy="123.2" r="0.4"/>
			<circle class="st27" cx="521.9" cy="123.2" r="0.4"/>
			<circle class="st27" cx="523.3" cy="123.2" r="0.4"/>
			<circle class="st29" cx="524.8" cy="123.2" r="0.4"/>
			<circle class="st27" cx="526.2" cy="123.2" r="0.4"/>
			<circle class="st27" cx="527.5" cy="123.2" r="0.4"/>
			<circle class="st27" cx="529" cy="123.2" r="0.4"/>
			<circle class="st27" cx="530.3" cy="123.2" r="0.4"/>
			<circle class="st27" cx="531.7" cy="123.2" r="0.4"/>
			<circle class="st27" cx="533.3" cy="123.2" r="0.4"/>
			<circle class="st27" cx="534.9" cy="123.2" r="0.4"/>
			<circle class="st27" cx="536.3" cy="123.2" r="0.4"/>
			<circle class="st27" cx="537.7" cy="123.2" r="0.4"/>
			<circle class="st29" cx="539.1" cy="123.2" r="0.4"/>
			<circle class="st29" cx="540.5" cy="123.2" r="0.4"/>
			<circle class="st27" cx="541.9" cy="123.2" r="0.4"/>
			<circle class="st27" cx="543.4" cy="123.2" r="0.4"/>
			<circle class="st27" cx="544.8" cy="123.2" r="0.4"/>
			<circle class="st27" cx="546.2" cy="123.2" r="0.4"/>
			<circle class="st27" cx="547.6" cy="123.2" r="0.4"/>
			<circle class="st27" cx="549" cy="123.2" r="0.4"/>
			<circle class="st28" cx="550.3" cy="123.2" r="0.4"/>
			<circle class="st30" cx="465.2" cy="122" r="0.4"/>
			<circle class="st31" cx="466.6" cy="122" r="0.4"/>
			<circle class="st31" cx="468" cy="122" r="0.4"/>
			<circle class="st30" cx="469.4" cy="122" r="0.4"/>
			<circle class="st31" cx="470.8" cy="122" r="0.4"/>
			<circle class="st31" cx="472.2" cy="122" r="0.4"/>
			<circle class="st31" cx="473.7" cy="122" r="0.4"/>
			<circle class="st31" cx="475.1" cy="122" r="0.4"/>
			<circle class="st31" cx="476.5" cy="122" r="0.4"/>
			<circle class="st31" cx="477.9" cy="122" r="0.4"/>
			<circle class="st31" cx="479.3" cy="122" r="0.4"/>
			<circle class="st31" cx="480.6" cy="122" r="0.4"/>
			<circle class="st30" cx="482.3" cy="122" r="0.4"/>
			<circle class="st30" cx="483.7" cy="122" r="0.4"/>
			<circle class="st31" cx="485.1" cy="122" r="0.4"/>
			<circle class="st30" cx="486.5" cy="122" r="0.4"/>
			<circle class="st31" cx="487.9" cy="122" r="0.4"/>
			<circle class="st31" cx="489.3" cy="122" r="0.4"/>
			<circle class="st31" cx="490.8" cy="122" r="0.4"/>
			<circle class="st31" cx="492.2" cy="122" r="0.4"/>
			<circle class="st31" cx="493.5" cy="122" r="0.4"/>
			<circle class="st31" cx="495" cy="122" r="0.4"/>
			<circle class="st31" cx="496.4" cy="122" r="0.4"/>
			<circle class="st32" cx="497.8" cy="122" r="0.4"/>
			<circle class="st31" cx="499.2" cy="122" r="0.4"/>
			<circle class="st31" cx="500.6" cy="122" r="0.4"/>
			<circle class="st31" cx="502" cy="122" r="0.4"/>
			<circle class="st31" cx="503.4" cy="122" r="0.4"/>
			<circle class="st31" cx="504.8" cy="122" r="0.4"/>
			<circle class="st31" cx="506.2" cy="122" r="0.4"/>
			<circle class="st31" cx="507.7" cy="122" r="0.4"/>
			<circle class="st31" cx="509" cy="122" r="0.4"/>
			<circle class="st30" cx="510.4" cy="122" r="0.4"/>
			<path class="st31" d="M511.9,121.6c0.2,0,0.4,0.2,0.4,0.4s-0.2,0.4-0.4,0.4s-0.4-0.2-0.4-0.4S511.6,121.6,511.9,121.6z"/>
			<circle class="st31" cx="513.3" cy="122" r="0.4"/>
			<circle class="st31" cx="514.6" cy="122" r="0.4"/>
			<circle class="st31" cx="516.3" cy="122" r="0.4"/>
			<circle class="st31" cx="517.7" cy="122" r="0.4"/>
			<circle class="st31" cx="519.1" cy="122" r="0.4"/>
			<circle class="st31" cx="520.5" cy="122" r="0.4"/>
			<circle class="st31" cx="521.9" cy="122" r="0.4"/>
			<circle class="st31" cx="523.3" cy="122" r="0.4"/>
			<circle class="st31" cx="524.8" cy="122" r="0.4"/>
			<circle class="st30" cx="526.2" cy="122" r="0.4"/>
			<circle class="st30" cx="527.5" cy="122" r="0.4"/>
			<circle class="st31" cx="529" cy="122" r="0.4"/>
			<circle class="st31" cx="530.3" cy="122" r="0.4"/>
			<circle class="st31" cx="531.7" cy="122" r="0.4"/>
			<circle class="st31" cx="533.3" cy="122" r="0.4"/>
			<circle class="st31" cx="534.9" cy="122" r="0.4"/>
			<circle class="st31" cx="536.3" cy="122" r="0.4"/>
			<circle class="st31" cx="537.7" cy="122" r="0.4"/>
			<circle class="st31" cx="539.1" cy="122" r="0.4"/>
			<circle class="st32" cx="540.5" cy="122" r="0.4"/>
			<circle class="st31" cx="541.9" cy="122" r="0.4"/>
			<circle class="st31" cx="543.4" cy="122" r="0.4"/>
			<circle class="st31" cx="544.8" cy="122" r="0.4"/>
			<circle class="st32" cx="546.2" cy="122" r="0.4"/>
			<circle class="st31" cx="547.6" cy="122" r="0.4"/>
			<circle class="st31" cx="549" cy="122" r="0.4"/>
			<circle class="st32" cx="550.3" cy="122" r="0.4"/>
		</g>
		<g>
			<circle cx="547.3" cy="118.7" r="0.4"/>
			<path class="st33" d="M547.1,107.6h5.2c0,0,0.2,0,0.3,0.2c0,0.2,0,0.9,0,0.9s-0.1,0.3-0.3,0.3c-0.2,0-4.9,0-4.9,0s-0.4,0-0.4,0.2
				s0,0.7,0,0.7s0,0.2,0.3,0.2c0.2,0,4.8,0,4.8,0s0.4,0,0.4,0.2s0,0.8,0,0.8s0,0.2-0.5,0.2s-4.5,0-4.5,0s-0.5,0-0.5,0.3s0,0.6,0,0.6
				s0,0.3,0.5,0.3c0.5,0,4.7,0,4.7,0s0.4-0.1,0.4,0.3s0,0.6,0,0.6s-0.1,0.3-0.4,0.3s-4.7,0-4.7,0s-0.5,0-0.5,0.3s0,0.8,0,0.8
				s0.2,0.3,0.5,0.3s4.8-0.1,4.8-0.1s0.5-0.1,0.5,0.3c0,0.4,0,0.7,0,0.7s0,0.3-0.5,0.3s-4.6,0-4.6,0s-0.4,0-0.4,0.3s0,0.7,0,0.7
				s0,0.3,0.5,0.3s4.5-0.1,4.5-0.1s0.5,0,0.5,0.3s0,0.7,0,0.7s0.1,0.3-0.5,0.3s-5.1,0-5.1,0"/>
		</g>
		<g>
			<circle cx="467.9" cy="118.7" r="0.4"/>
			<path class="st33" d="M468.1,107.6h-5.2c0,0-0.2,0-0.3,0.2c0,0.2,0,0.9,0,0.9s0.1,0.3,0.3,0.3s4.9,0,4.9,0s0.4,0,0.4,0.2
				s0,0.7,0,0.7s0,0.2-0.3,0.2s-4.8,0-4.8,0s-0.4,0-0.4,0.2s0,0.8,0,0.8s0,0.2,0.5,0.2s4.5,0,4.5,0s0.5,0,0.5,0.3s0,0.6,0,0.6
				s0,0.3-0.5,0.3s-4.7,0-4.7,0s-0.4-0.1-0.4,0.3s0,0.6,0,0.6s0.1,0.3,0.4,0.3s4.7,0,4.7,0s0.5,0,0.5,0.3s0,0.8,0,0.8
				s-0.1,0.3-0.5,0.3c-0.3,0-4.8-0.1-4.8-0.1s-0.5-0.1-0.5,0.3s0,0.7,0,0.7s0,0.3,0.5,0.3c0.6,0,4.6,0,4.6,0s0.4,0,0.4,0.3
				s0,0.7,0,0.7s0,0.3-0.5,0.3s-4.5-0.1-4.5-0.1s-0.5,0-0.5,0.3s0,0.7,0,0.7s-0.1,0.3,0.5,0.3s5.1,0,5.1,0"/>
		</g>
		<g>
			<path class="st7" d="M476.3,108.3l-0.2,9.9c0,0-0.1,0.8,0.3,0.8s1.4,0,1.4,0s0.4,0.1,0.5-0.4c0-0.5,0-4.7,0-4.7l1.2,3.1
				c0,0,0.1,0.6,0.4,0c0.3-0.6,1.3-3,1.3-3l-0.1,4.5c0,0,0.1,0.4,0.3,0.4c0.3,0,1.6,0,1.6,0s0.2,0.1,0.3-0.7s0.3-9.8,0.3-9.8
				s0.1-0.4-0.5-0.5l-1.7,0l-1.4,3.5l-1.3-3.4l-2.1-0.1C476.5,107.9,476.3,107.9,476.3,108.3z"/>
			<path class="st7" d="M510.1,108.2l-0.2,9.9c0,0-0.1,0.8,0.3,0.8s1.4,0,1.4,0s0.4,0.1,0.5-0.4s0-4.7,0-4.7l1.2,3.1
				c0,0,0.1,0.6,0.4,0c0.3-0.6,1.3-3,1.3-3l-0.1,4.5c0,0,0.1,0.4,0.3,0.4c0.3,0,1.6,0,1.6,0s0.2,0.1,0.3-0.7s0.3-9.8,0.3-9.8
				s0.1-0.4-0.5-0.5l-1.7,0l-1.3,3.5l-1.3-3.4l-2.1-0.1C510.4,107.9,510.1,107.8,510.1,108.2z"/>
			<path class="st7" d="M498.8,107.8l2.2,0.1l0,7.8c0,0,0,0.9,0.9,0.9c0.9,0,1.2-1.1,1.2-1.1l0-7.6l2.2,0l0,8.3c0,0-0.5,2.7-3.3,2.6
				s-3.1-2.7-3.1-2.7L498.8,107.8z"/>
			<path class="st7" d="M522.5,108.1v10.2c0,0-0.1,0.5,0.2,0.5c0.3,0,5.4,0.1,5.4,0.1s0.5,0,0.5-0.3s0-1.5,0-1.5s0-0.3-0.4-0.4
				c-0.4,0-3.6-0.1-3.6-0.1l0-2.8l2.5,0.1c0,0,0.3,0.1,0.4-0.3s0-1.6,0-1.6s-0.2-0.3-0.5-0.3s-2.5-0.1-2.5-0.1V110l3.9,0.1l0.1-2
				c0,0,0-0.3-0.4-0.3c-0.4,0-5.3,0.1-5.3,0.1S522.5,107.9,522.5,108.1z"/>
			<path class="st7" d="M533.2,108.1v10.2c0,0-0.1,0.5,0.2,0.5c0.3,0,5.4,0.1,5.4,0.1s0.5,0,0.5-0.3s0-1.5,0-1.5s0-0.3-0.4-0.4
				c-0.4,0-3.6-0.1-3.6-0.1l0-2.8l2.5,0.1c0,0,0.3,0.1,0.4-0.3s0-1.6,0-1.6s-0.2-0.3-0.5-0.3s-2.5-0.1-2.5-0.1V110l3.9,0.1l0.1-2
				c0,0,0-0.3-0.4-0.3c-0.4,0-5.3,0.1-5.3,0.1S533.2,107.9,533.2,108.1z"/>
			<path class="st7" d="M491,107.8c-2.3-0.1-3.1,2.7-3.1,2.7l-0.2,7.9c0,0-0.1,0.5,0.5,0.5s1.4,0,1.4,0s0.4,0,0.4-0.5
				c0-0.5,0-2.3,0-2.3l1.8,0l0,2.3c0,0,0.1,0.5,0.4,0.5c0.4,0,1.8,0,1.8,0l0.3-8.5C494.2,110.7,493.9,107.9,491,107.8z M492,111.2
				l-0.1,2.8l-1.9,0l0.1-2.8c0,0-0.1-1,1-1C492.1,110.1,492,111.2,492,111.2z"/>
		</g>
		<g>
			<path class="st34" d="M477.1,117.9c0,0,0.4,0.3,0.3,0.4c-0.1,0.1-0.9,0.2-1-0.1c-0.1-0.3,0.2-9.6,0.2-9.6s0-0.5,0.3-0.5s1,0,1,0
				s0.1,0,0.2,0.3s1.3,3.7,1.3,3.7s0.3,0.5,0.5,0c0.2-0.5,1.4-3.7,1.4-3.7s0.1-0.2,0.4-0.2c0.3,0,1,0,1,0s0.3,0,0.3,0.3
				s-0.4,9.5-0.4,9.5s0,0.3-0.4,0.4c0,0-0.5,0.1-0.6-0.1s0.2-0.5,0.4-0.5"/>
			<path class="st34" d="M477.8,118.2c0,0-0.1-6.1,0-6.1s0.6,1.4,0.7,1.6s0.9,2.3,0.9,2.3s0.2,0.4,0.4,0c0.2-0.4,1.5-3.9,1.5-3.9
				s0.1-0.2,0.1,0.4s-0.1,5.8-0.1,5.8"/>
		</g>
		<g>
			<polygon class="st12" points="553.1,124.8 574.1,121.7 574.1,106.4 553.1,103.4 			"/>
			<polygon class="st35" points="554.9,120.4 572.8,119.3 572.8,109.1 554.9,106.6 			"/>
			<polygon class="st7" points="553.1,124.8 574.1,121.7 574.1,121 553.1,124.1 			"/>
			<polygon class="st7" points="553.1,121.2 574.1,119.9 574.1,119.3 553.1,120.6 			"/>
			<polygon class="st7" points="553.1,104 574.1,106.9 574.1,106.4 553.1,103.4 			"/>
			<polygon class="st7" points="553.1,106.4 574.1,109.3 574.1,108.8 553.1,105.8 			"/>
			<circle class="st29" cx="570.8" cy="121.2" r="0.2"/>
			<circle class="st27" cx="570" cy="121.3" r="0.2"/>
			<circle class="st27" cx="569.2" cy="121.3" r="0.2"/>
			<circle class="st27" cx="568.4" cy="121.4" r="0.2"/>
			<circle class="st27" cx="567.5" cy="121.6" r="0.2"/>
			<circle class="st27" cx="566.4" cy="121.6" r="0.3"/>
			<circle class="st27" cx="565.4" cy="121.7" r="0.3"/>
			<circle class="st29" cx="564.4" cy="121.9" r="0.3"/>
			<circle class="st27" cx="563.2" cy="122.1" r="0.3"/>
			<circle class="st27" cx="562.1" cy="122.3" r="0.3"/>
			<circle class="st27" cx="561" cy="122.4" r="0.3"/>
			<circle class="st27" cx="559.9" cy="122.5" r="0.3"/>
			<circle class="st27" cx="558.8" cy="122.6" r="0.3"/>
			<circle class="st27" cx="557.6" cy="122.7" r="0.3"/>
			<circle class="st27" cx="556.5" cy="122.8" r="0.3"/>
			<circle class="st28" cx="555.3" cy="122.9" r="0.3"/>
			<circle class="st29" cx="554.2" cy="123" r="0.3"/>
			<circle class="st31" cx="570.8" cy="120.6" r="0.2"/>
			<circle class="st31" cx="570" cy="120.7" r="0.2"/>
			<circle class="st31" cx="569.2" cy="120.7" r="0.2"/>
			<circle class="st31" cx="568.3" cy="120.8" r="0.2"/>
			<circle class="st31" cx="567.4" cy="120.9" r="0.2"/>
			<circle class="st31" cx="566.4" cy="120.9" r="0.3"/>
			<circle class="st31" cx="565.3" cy="121" r="0.3"/>
			<circle class="st31" cx="564.3" cy="121" r="0.3"/>
			<circle class="st30" cx="563.1" cy="121.1" r="0.3"/>
			<circle class="st30" cx="562" cy="121.2" r="0.3"/>
			<circle class="st31" cx="560.9" cy="121.3" r="0.3"/>
			<circle class="st30" cx="559.8" cy="121.5" r="0.3"/>
			<circle class="st31" cx="558.6" cy="121.6" r="0.3"/>
			<circle class="st31" cx="557.5" cy="121.7" r="0.3"/>
			<circle class="st31" cx="556.4" cy="121.8" r="0.3"/>
			<circle class="st31" cx="555.2" cy="121.9" r="0.3"/>
			<circle class="st31" cx="554.1" cy="122" r="0.3"/>
			<line class="st33" x1="573.4" y1="107.4" x2="553.9" y2="104.6"/>
			<line class="st33" x1="573.4" y1="108.1" x2="553.9" y2="105.3"/>
			<line class="st36" x1="572.8" y1="110.5" x2="554.9" y2="108.1"/>
			<line class="st36" x1="572.8" y1="112.4" x2="554.9" y2="110.3"/>
			<line class="st36" x1="572.8" y1="114.1" x2="554.9" y2="112.5"/>
			<line class="st36" x1="572.8" y1="116.1" x2="554.9" y2="115.2"/>
			<line class="st36" x1="572.8" y1="118" x2="554.9" y2="118.3"/>
		</g>
		<g>
			<path class="st34" d="M511,117.9c0,0,0.4,0.3,0.3,0.4c-0.1,0.1-0.9,0.2-1-0.1s0.2-9.6,0.2-9.6s0-0.5,0.3-0.5s1,0,1,0
				s0.1,0,0.2,0.3c0.1,0.3,1.3,3.7,1.3,3.7s0.3,0.5,0.5,0c0.2-0.5,1.4-3.7,1.4-3.7s0.1-0.2,0.4-0.2s1,0,1,0s0.3,0,0.3,0.3
				s-0.4,9.5-0.4,9.5s0,0.3-0.4,0.4c0,0-0.5,0.1-0.6-0.1c0-0.2,0.2-0.5,0.4-0.5"/>
			<path class="st34" d="M511.6,118.2c0,0-0.1-6.1,0-6.1s0.6,1.4,0.7,1.6c0.1,0.2,0.9,2.3,0.9,2.3s0.2,0.4,0.4,0
				c0.2-0.4,1.5-3.9,1.5-3.9s0.1-0.2,0.1,0.4c0,0.7-0.1,5.8-0.1,5.8"/>
		</g>
		<g>
			<path class="st34" d="M489,117.9c0,0-0.1,0.2,0,0.4c0.1,0.2-0.7,0.2-0.7,0.2l0.1-8.2c0,0,0.7-2.3,2.7-2.2s2.6,2.1,2.6,2.1v7.8
				c0,0,0,0.5-0.2,0.5s-1-0.1-1-0.1s0.5,0.1,0.5-0.5"/>
			<path class="st34" d="M489.6,118.3c0,0-0.1-2.5,0-2.6s2.7-0.1,2.7-0.1l0.1,2.7"/>
			<path class="st34" d="M492.2,114.3l-2.3-0.1c0,0-0.3-0.1-0.3-0.3c0-0.2,0.1-3.4,0.1-3.4s0.4-1,1.2-1c0.9,0,1.5,0.5,1.5,1.1
				c0.1,0.6-0.1,5.1-0.1,5.1"/>
		</g>
		<g>
			<path class="st34" d="M499.3,108.4l-0.1,7.8c0,0,0.4,2.3,2.6,2.3c2.2,0,2.9-2.3,2.9-2.3l0.2-7.9"/>
			<path class="st34" d="M499.6,108.2l0.9,0c0,0,0.2,0,0.2,0.3c0,0.3,0,7.8,0,7.8s0.4,1,1.5,1s1.5-1.3,1.5-1.3l0-7.4
				c0,0,0-0.2,0.2-0.2c0.2-0.1,0.8,0,0.8,0"/>
		</g>
		<g>
			<path class="st34" d="M527.8,117.6c0.1-0.3,0.3-0.2,0.3-0.2s0,0.7,0,1c-0.1,0.3-0.5,0.3-0.5,0.3s-4.2-0.1-4.5-0.1
				c-0.3,0-0.2-0.4-0.2-0.4s0-9.3,0-9.8s0.5-0.3,0.5-0.3l4.6,0.1c0,0,0.3-0.1,0.3,0.4c0,0.4,0.1,1-0.1,0.9s-0.5-0.6-0.5-0.6"/>
			<path class="st34" d="M527.8,109.6l-3.3-0.1c0,0-0.3-0.1-0.4,0.3s0,2,0,2s0.1,0.3,0.4,0.3s2.3,0.1,2.3,0.1s0.5-0.1,0.5,0.3
				s0,0.8,0,0.8s0,0.3-0.3,0.3c-0.4,0.1-2.2,0-2.2,0s-0.5-0.1-0.5,0.2c0,0.3,0,2.9,0,2.9s0.1,0.5,0.4,0.5c0.3,0,3.6-0.1,3.6-0.1"/>
		</g>
		<g>
			<path class="st34" d="M538.5,117.6c0.1-0.3,0.3-0.2,0.3-0.2s0,0.7,0,1c-0.1,0.3-0.5,0.3-0.5,0.3s-4.2-0.1-4.5-0.1
				c-0.3,0-0.2-0.4-0.2-0.4s0-9.3,0-9.8s0.5-0.3,0.5-0.3l4.6,0.1c0,0,0.3-0.1,0.3,0.4c0,0.4,0.1,1-0.1,0.9s-0.5-0.6-0.5-0.6"/>
			<path class="st34" d="M538.5,109.6l-3.3-0.1c0,0-0.3-0.1-0.4,0.3s0,2,0,2s0.1,0.3,0.4,0.3s2.3,0.1,2.3,0.1s0.5-0.1,0.5,0.3
				c0,0.4,0,0.8,0,0.8s0,0.3-0.3,0.3c-0.4,0.1-2.2,0-2.2,0s-0.5-0.1-0.5,0.2c0,0.3,0,2.9,0,2.9s0.1,0.5,0.4,0.5
				c0.3,0,3.6-0.1,3.6-0.1"/>
		</g>
		<line class="st33" x1="463.3" y1="105.2" x2="551.6" y2="105.2"/>
		<line class="st33" x1="463.3" y1="104.5" x2="551.6" y2="104.5"/>
		<g>
			<g>
				<path class="st7" d="M441,102.3l0.5,3.7c0,0,0,0.3,0.1,0.3s0.5-0.1,0.5-0.1s0.2,0,0.1-0.2s-0.3-1.7-0.3-1.7l0.6,1.1
					c0,0,0.1,0.2,0.1,0c0.1-0.2,0.3-1.2,0.3-1.2l0.2,1.7c0,0,0,0.1,0.1,0.1c0.1,0,0.6-0.1,0.6-0.1s0.1,0,0-0.3s-0.4-3.6-0.4-3.6
					s0-0.2-0.2-0.1l-0.6,0.1l-0.3,1.4l-0.7-1.2l-0.8,0.1C441.1,102.1,441,102.1,441,102.3z"/>
				<path class="st7" d="M450.4,100.8l0.5,3.7c0,0,0,0.3,0.1,0.3s0.5-0.1,0.5-0.1s0.2,0,0.1-0.2s-0.3-1.7-0.3-1.7l0.6,1.1
					c0,0,0.1,0.2,0.1,0s0.3-1.2,0.3-1.2l0.2,1.7c0,0,0,0.1,0.1,0.1s0.6-0.1,0.6-0.1s0.1,0,0-0.3s-0.4-3.6-0.4-3.6s0-0.2-0.2-0.1
					l-0.6,0.1l-0.3,1.4l-0.7-1.2l-0.8,0.1C450.5,100.7,450.4,100.7,450.4,100.8z"/>
				<path class="st7" d="M447.3,101.1l0.8-0.1l0.4,2.9c0,0,0,0.3,0.4,0.3s0.4-0.5,0.4-0.5l-0.4-2.9l0.8-0.1l0.4,3.1
					c0,0-0.1,1-1.1,1.2s-1.3-0.9-1.3-0.9L447.3,101.1z"/>
				<path class="st7" d="M453.7,100.3l0.4,3.8c0,0,0,0.2,0.1,0.2s2-0.2,2-0.2s0.2,0,0.2-0.2s0-0.6,0-0.6s0-0.1-0.2-0.1
					s-1.3,0.1-1.3,0.1l-0.1-1l1-0.1c0,0,0.1,0,0.1-0.1c0-0.2,0-0.6,0-0.6s-0.1-0.1-0.2-0.1s-0.9,0.1-0.9,0.1l-0.1-0.6l1.5-0.2l0-0.7
					c0,0,0-0.1-0.2-0.1s-2,0.3-2,0.3S453.7,100.2,453.7,100.3z"/>
				<path class="st7" d="M456.6,100l0.4,3.8c0,0,0,0.2,0.1,0.2s2-0.2,2-0.2s0.2,0,0.2-0.2c0-0.1,0-0.6,0-0.6s0-0.1-0.2-0.1
					s-1.4,0.1-1.4,0.1l-0.1-1l1-0.1c0,0,0.1,0,0.1-0.1c0-0.2,0-0.6,0-0.6s-0.1-0.1-0.2-0.1c-0.1,0-0.9,0.1-0.9,0.1l-0.1-0.6l1.5-0.2
					l0-0.7c0,0,0-0.1-0.2-0.1s-2,0.3-2,0.3S456.6,99.9,456.6,100z"/>
				<path class="st7" d="M445.6,101.2c-0.9,0.1-1.1,1.2-1.1,1.2l0.3,3.1c0,0,0,0.2,0.2,0.2s0.5-0.1,0.5-0.1s0.1,0,0.1-0.2
					s-0.1-0.9-0.1-0.9l0.7-0.1l0.1,0.9c0,0,0,0.2,0.2,0.2c0.1,0,0.7-0.1,0.7-0.1l-0.3-3.3C447,102.1,446.7,101.1,445.6,101.2z
					 M446.1,102.4l0.1,1.1l-0.7,0.1l-0.1-1.1c0,0-0.1-0.4,0.3-0.4S446.1,102.4,446.1,102.4z"/>
			</g>
			<polygon class="st12" points="461.3,124.8 440.3,121.7 440.3,106.4 461.3,103.4 			"/>
			<polygon class="st35" points="459.6,120.4 441.7,119.3 441.7,109.1 459.6,106.6 			"/>
			<polygon class="st7" points="461.3,124.8 440.3,121.7 440.3,121 461.3,124.1 			"/>
			<polygon class="st7" points="461.3,121.2 440.3,119.9 440.3,119.3 461.3,120.6 			"/>
			<polygon class="st7" points="461.3,104 440.3,106.9 440.3,106.4 461.3,103.4 			"/>
			<polygon class="st7" points="461.3,106.4 440.3,109.3 440.3,108.8 461.3,105.8 			"/>
			<circle class="st29" cx="443.6" cy="121.2" r="0.2"/>
			<circle class="st27" cx="444.4" cy="121.3" r="0.2"/>
			<circle class="st27" cx="445.2" cy="121.3" r="0.2"/>
			<circle class="st27" cx="446.1" cy="121.4" r="0.2"/>
			<circle class="st27" cx="446.9" cy="121.6" r="0.2"/>
			<circle class="st27" cx="448" cy="121.6" r="0.3"/>
			<circle class="st27" cx="449.1" cy="121.7" r="0.3"/>
			<circle class="st29" cx="450" cy="121.9" r="0.3"/>
			<circle class="st27" cx="451.2" cy="122.1" r="0.3"/>
			<circle class="st27" cx="452.4" cy="122.3" r="0.3"/>
			<circle class="st27" cx="453.5" cy="122.4" r="0.3"/>
			<circle class="st27" cx="454.6" cy="122.5" r="0.3"/>
			<circle class="st27" cx="455.7" cy="122.6" r="0.3"/>
			<circle class="st27" cx="456.8" cy="122.7" r="0.3"/>
			<circle class="st27" cx="458" cy="122.8" r="0.3"/>
			<circle class="st28" cx="459.1" cy="122.9" r="0.3"/>
			<circle class="st29" cx="460.2" cy="123" r="0.3"/>
			<circle class="st31" cx="443.6" cy="120.6" r="0.2"/>
			<circle class="st31" cx="444.4" cy="120.7" r="0.2"/>
			<circle class="st31" cx="445.2" cy="120.7" r="0.2"/>
			<circle class="st31" cx="446.2" cy="120.8" r="0.2"/>
			<circle class="st31" cx="447" cy="120.9" r="0.2"/>
			<circle class="st31" cx="448" cy="120.9" r="0.3"/>
			<circle class="st31" cx="449.2" cy="121" r="0.3"/>
			<circle class="st31" cx="450.2" cy="121" r="0.3"/>
			<circle class="st30" cx="451.3" cy="121.1" r="0.3"/>
			<circle class="st30" cx="452.5" cy="121.2" r="0.3"/>
			<circle class="st31" cx="453.6" cy="121.3" r="0.3"/>
			<circle class="st30" cx="454.7" cy="121.5" r="0.3"/>
			<circle class="st31" cx="455.8" cy="121.6" r="0.3"/>
			<circle class="st31" cx="456.9" cy="121.7" r="0.3"/>
			<circle class="st31" cx="458.1" cy="121.8" r="0.3"/>
			<circle class="st31" cx="459.2" cy="121.9" r="0.3"/>
			<circle class="st31" cx="460.3" cy="122" r="0.3"/>
			<line class="st33" x1="441" y1="107.4" x2="460.5" y2="104.6"/>
			<line class="st33" x1="441" y1="108.1" x2="460.5" y2="105.3"/>
			<line class="st36" x1="441.7" y1="110.5" x2="459.6" y2="108.1"/>
			<line class="st36" x1="441.7" y1="112.4" x2="459.5" y2="110.3"/>
			<line class="st36" x1="441.7" y1="114.1" x2="459.6" y2="112.5"/>
			<line class="st36" x1="441.7" y1="116.1" x2="459.6" y2="115.2"/>
			<line class="st36" x1="441.7" y1="118" x2="459.5" y2="118.3"/>
		</g>
		<g>
			<path class="st7" d="M555.9,99.5l-0.6,3.6c0,0-0.1,0.3,0.1,0.3c0.2,0,0.5,0.1,0.5,0.1s0.2,0.1,0.2-0.1c0-0.2,0.3-1.7,0.3-1.7
				l0.3,1.2c0,0,0,0.2,0.1,0c0.1-0.2,0.7-1,0.7-1l-0.3,1.6c0,0,0,0.1,0.1,0.2s0.6,0.1,0.6,0.1s0.1,0.1,0.1-0.3s0.6-3.6,0.6-3.6
				s0.1-0.2-0.2-0.2l-0.6-0.1l-0.7,1.2l-0.3-1.3l-0.8-0.1C556,99.4,555.9,99.4,555.9,99.5z"/>
			<path class="st7" d="M565.3,100.9l-0.6,3.6c0,0-0.1,0.3,0.1,0.3s0.5,0.1,0.5,0.1s0.2,0.1,0.2-0.1c0-0.2,0.3-1.7,0.3-1.7l0.3,1.2
				c0,0,0,0.2,0.1,0c0.1-0.2,0.7-1,0.7-1l-0.3,1.6c0,0,0,0.1,0.1,0.2c0.1,0,0.6,0.1,0.6,0.1s0.1,0.1,0.1-0.3s0.6-3.6,0.6-3.6
				s0.1-0.2-0.2-0.2l-0.6-0.1l-0.7,1.2l-0.3-1.3l-0.8-0.1C565.4,100.8,565.3,100.8,565.3,100.9z"/>
			<path class="st7" d="M562.2,100.3l0.8,0.2l-0.5,2.9c0,0-0.1,0.3,0.3,0.4c0.3,0.1,0.5-0.3,0.5-0.3l0.5-2.8l0.8,0.2l-0.5,3.1
				c0,0-0.4,1-1.4,0.8c-1-0.2-1-1.2-1-1.2L562.2,100.3z"/>
			<path class="st7" d="M568.5,101.3l-0.7,3.7c0,0-0.1,0.2,0,0.2c0.1,0,2,0.4,2,0.4s0.2,0,0.2-0.1s0.1-0.6,0.1-0.6s0-0.1-0.1-0.2
				s-1.3-0.3-1.3-0.3l0.2-1l0.9,0.2c0,0,0.1,0.1,0.2-0.1s0.1-0.6,0.1-0.6s0-0.1-0.2-0.1c-0.1,0-0.9-0.2-0.9-0.2l0.1-0.6l1.4,0.3
				l0.2-0.7c0,0,0-0.1-0.1-0.2c-0.1,0-2-0.3-2-0.3S568.6,101.2,568.5,101.3z"/>
			<path class="st7" d="M571.5,101.9l-0.7,3.8c0,0-0.1,0.2,0,0.2s2,0.4,2,0.4s0.2,0,0.2-0.1s0.1-0.6,0.1-0.6s0-0.1-0.1-0.2
				s-1.3-0.3-1.3-0.3l0.2-1l0.9,0.2c0,0,0.1,0.1,0.2-0.1s0.1-0.6,0.1-0.6s0-0.1-0.2-0.1c-0.1,0-0.9-0.2-0.9-0.2l0.1-0.6l1.5,0.3
				l0.2-0.7c0,0,0-0.1-0.1-0.2c-0.2,0-2-0.3-2-0.3S571.5,101.8,571.5,101.9z"/>
			<path class="st7" d="M560.5,99.8c-0.9-0.2-1.4,0.8-1.4,0.8l-0.6,3.1c0,0-0.1,0.2,0.2,0.2c0.2,0,0.5,0.1,0.5,0.1s0.1,0,0.2-0.2
				c0-0.2,0.2-0.9,0.2-0.9l0.7,0.1l-0.2,0.9c0,0,0,0.2,0.1,0.2c0.1,0,0.7,0.1,0.7,0.1l0.7-3.2C561.6,101.1,561.7,100,560.5,99.8z
				 M560.7,101.2l-0.2,1.1l-0.7-0.1l0.2-1.1c0,0,0-0.4,0.4-0.3C560.8,100.8,560.7,101.2,560.7,101.2z"/>
		</g>
	</g>
	<rect x="477.2" y="128.7" class="st13" width="60.4" height="0.6"/>
	<rect x="537.6" y="124.8" class="st13" width="0.6" height="25.7"/>
	<rect x="517.5" y="124.8" class="st13" width="0.6" height="25.7"/>
	<rect x="497.3" y="124.8" class="st13" width="0.6" height="25.7"/>
	<g>
		<g>
			<rect x="477.8" y="129.5" class="st37" width="9.5" height="20.9"/>
			<rect x="478.8" y="130.5" class="st14" width="7.6" height="17.8"/>
			<polygon class="st38" points="478.8,137 486.4,132.5 486.4,136.2 478.8,141 			"/>
			<polygon class="st39" points="478.8,134.1 485,130.5 486.4,130.5 486.4,131.2 478.8,135.7 			"/>
			<polygon class="st40" points="478.8,147.9 486.4,143.7 486.4,137.6 478.8,142.3 			"/>
			<line class="st41" x1="478" y1="141.3" x2="487.2" y2="135.6"/>
			<line class="st41" x1="478" y1="143.1" x2="487.2" y2="137.4"/>
		</g>
		<rect x="487.7" y="129.5" class="st37" width="9.5" height="20.9"/>
		<rect x="488.6" y="130.5" class="st14" width="7.6" height="17.8"/>
		<polygon class="st42" points="488.6,143.4 496.2,138.8 496.2,145.9 492.4,148.3 488.6,148.3 		"/>
		<polygon class="st43" points="488.6,137.3 496.2,133.1 496.2,134.4 488.6,138.7 		"/>
		<line class="st41" x1="497" y1="141.3" x2="487.9" y2="135.6"/>
		<line class="st41" x1="497" y1="143.1" x2="487.9" y2="137.4"/>
	</g>
	<g>
		<g>
			<rect x="498.1" y="129.5" class="st37" width="9.5" height="20.9"/>
			<rect x="499.1" y="130.5" class="st14" width="7.6" height="17.8"/>
			<polygon class="st38" points="499.1,137 506.6,132.5 506.6,136.2 499.1,141 			"/>
			<polygon class="st39" points="499.1,134.1 505.2,130.5 506.6,130.5 506.6,131.2 499.1,135.7 			"/>
			<polygon class="st40" points="499.1,147.9 506.6,143.7 506.6,137.6 499.1,142.3 			"/>
			<line class="st41" x1="498.3" y1="141.3" x2="507.4" y2="135.6"/>
			<line class="st41" x1="498.3" y1="143.1" x2="507.4" y2="137.4"/>
		</g>
		<rect x="507.9" y="129.5" class="st37" width="9.5" height="20.9"/>
		<rect x="508.9" y="130.5" class="st14" width="7.6" height="17.8"/>
		<polygon class="st42" points="508.9,143.4 516.5,138.8 516.5,145.9 512.7,148.3 508.9,148.3 		"/>
		<polygon class="st43" points="508.9,137.3 516.5,133.1 516.5,134.4 508.9,138.7 		"/>
		<line class="st41" x1="517.3" y1="141.3" x2="508.1" y2="135.6"/>
		<line class="st41" x1="517.3" y1="143.1" x2="508.1" y2="137.4"/>
	</g>
	<g>
		<g>
			<rect x="518.3" y="129.5" class="st37" width="9.5" height="20.9"/>
			<rect x="519.2" y="130.5" class="st14" width="7.6" height="17.8"/>
			<polygon class="st38" points="519.2,137 526.8,132.5 526.8,136.2 519.2,141 			"/>
			<polygon class="st39" points="519.2,134.1 525.4,130.5 526.8,130.5 526.8,131.2 519.2,135.7 			"/>
			<polygon class="st40" points="519.2,147.9 526.8,143.7 526.8,137.6 519.2,142.3 			"/>
			<line class="st41" x1="518.5" y1="141.3" x2="527.6" y2="135.6"/>
			<line class="st41" x1="518.5" y1="143.1" x2="527.6" y2="137.4"/>
		</g>
		<rect x="528.1" y="129.5" class="st37" width="9.5" height="20.9"/>
		<rect x="529.1" y="130.5" class="st14" width="7.6" height="17.8"/>
		<polygon class="st42" points="529.1,143.4 536.6,138.8 536.6,145.9 532.9,148.3 529.1,148.3 		"/>
		<polygon class="st43" points="529.1,137.3 536.6,133.1 536.6,134.4 529.1,138.7 		"/>
		<line class="st41" x1="537.4" y1="141.3" x2="528.3" y2="135.6"/>
		<line class="st41" x1="537.4" y1="143.1" x2="528.3" y2="137.4"/>
	</g>
	<rect x="477.1" y="124.8" class="st13" width="0.6" height="25.7"/>
	<g>
		<rect x="539.8" y="128.4" class="st44" width="10.8" height="20.5"/>
		<polygon class="st45" points="539.9,134.9 550.5,130.2 550.5,135 539.9,139.4 		"/>
		<polygon class="st6" points="539.8,142.3 550.6,137.6 550.6,143.1 539.8,147.5 		"/>
		<polygon class="st46" points="539.8,140.3 550.6,135.9 550.6,136.7 539.9,141.3 		"/>
	</g>
	<g>
		<rect x="445.2" y="128.4" class="st44" width="10.8" height="20.5"/>
		<polygon class="st45" points="445.4,134.9 455.9,130.2 455.9,135 445.4,139.4 		"/>
		<polygon class="st6" points="445.2,142.3 456,137.6 456,143.1 445.2,147.5 		"/>
		<polygon class="st46" points="445.2,140.3 456,135.9 456,136.7 445.4,141.3 		"/>
	</g>
	<g>
		<rect x="557.7" y="128.3" class="st44" width="10.8" height="20.5"/>
		<polygon class="st45" points="557.8,134.8 568.4,130.1 568.4,134.9 557.8,139.3 		"/>
		<polygon class="st6" points="557.7,142.2 568.5,137.5 568.5,143 557.7,147.4 		"/>
		<polygon class="st46" points="557.7,140.2 568.5,135.8 568.5,136.6 557.8,141.2 		"/>
	</g>
	<path d="M469.3,126.4c-0.6,0-1.1,0.5-1.1,1.2c0,0.6,0.5,1.1,1.1,1.1c0.6,0,1.1-0.5,1.1-1.2C470.5,126.9,470,126.4,469.3,126.4z
		 M469.9,128.3l0-0.7c0-0.2,0-0.5,0-0.7h0c0,0.2-0.1,0.4-0.2,0.6l-0.3,0.8h-0.1l-0.3-0.8c-0.1-0.2-0.1-0.4-0.2-0.6l0,0
		c0,0.2,0,0.5,0,0.7l0,0.7h-0.2l0.1-1.6h0.2l0.3,0.8c0.1,0.2,0.1,0.4,0.2,0.5h0c0-0.2,0.1-0.3,0.2-0.5l0.3-0.8h0.3l0.1,1.6
		L469.9,128.3L469.9,128.3z"/>
	<g>
		<path class="st7" d="M466.8,129.7h-0.4v-0.1h0.9v0.1H467v1h-0.1V129.7z"/>
		<path class="st7" d="M467.6,129.6v1.1h-0.1v-1.1H467.6z"/>
		<path class="st7" d="M468.7,130.7c0,0-0.2,0.1-0.3,0.1c-0.3,0-0.6-0.2-0.6-0.6c0-0.4,0.2-0.6,0.6-0.6c0.1,0,0.2,0,0.3,0.1l0,0.1
			c-0.1,0-0.1-0.1-0.2-0.1c-0.3,0-0.5,0.2-0.5,0.5c0,0.3,0.2,0.5,0.4,0.5c0.1,0,0.2,0,0.2-0.1L468.7,130.7z"/>
		<path class="st7" d="M468.9,129.6h0.1v0.6l0,0c0,0,0.1-0.1,0.1-0.1l0.4-0.4h0.2l-0.4,0.5l0.5,0.7h-0.2l-0.4-0.6l-0.1,0.1v0.4h-0.1
			V129.6z"/>
		<path class="st7" d="M470.4,130.2h-0.4v0.4h0.5v0.1h-0.6v-1.1h0.6v0.1h-0.5v0.4h0.4L470.4,130.2L470.4,130.2z"/>
		<path class="st7" d="M470.9,129.7h-0.4v-0.1h0.9v0.1H471v1h-0.1V129.7z"/>
		<path class="st7" d="M471.4,130.5c0.1,0,0.2,0.1,0.3,0.1c0.1,0,0.2-0.1,0.2-0.2s-0.1-0.2-0.2-0.2c-0.2-0.1-0.3-0.2-0.3-0.3
			c0-0.2,0.1-0.3,0.4-0.3c0.1,0,0.2,0,0.3,0.1l0,0.1c0,0-0.1-0.1-0.2-0.1c-0.2,0-0.2,0.1-0.2,0.2c0,0.1,0.1,0.2,0.2,0.2
			c0.2,0.1,0.3,0.2,0.3,0.3c0,0.2-0.1,0.3-0.4,0.3c-0.1,0-0.2,0-0.3-0.1L471.4,130.5z"/>
	</g>
	<g>
		<rect x="463.8" y="132" class="st35" width="11" height="11"/>
		<path class="st47" d="M474.6,132.3v10.5h-10.5v-10.5H474.6 M475.1,131.8h-11.5v11.5h11.5V131.8L475.1,131.8z"/>
	</g>
	<rect x="464.6" y="143.3" class="st7" width="1.1" height="4.6"/>
	<rect x="466.6" y="143.3" class="st7" width="1.1" height="4.6"/>
	<rect x="468.8" y="143.3" class="st7" width="1.1" height="4.6"/>
	<rect x="470.8" y="143.3" class="st7" width="1.1" height="4.6"/>
	<rect x="472.9" y="143.3" class="st7" width="1.1" height="4.6"/>
	<rect x="463.3" y="142.9" class="st48" width="12" height="0.7"/>
	<polygon class="st49" points="463.8,135.1 474.9,132.5 474.9,135 463.8,137.8 	"/>
	<polygon class="st50" points="463.9,138.6 475,135.8 475,137 463.9,139.8 	"/>
</g>
<rect x="0.8" y="162.8" class="st51" width="758.6" height="28.4"/>
<rect y="159.6" class="st52" width="759.4" height="3.2"/>
<rect y="191.2" class="st52" width="759.4" height="3.2"/>
<g>
	<rect x="31.9" y="130.4" class="st9" width="5.4" height="21.2"/>
	<ellipse class="st10" cx="33.7" cy="106.8" rx="21.8" ry="28.6"/>
</g>
<g>
	<rect x="282.2" y="96.5" class="st9" width="6.4" height="25.3"/>
	<ellipse class="st10" cx="284.5" cy="68.3" rx="26" ry="34.2"/>
</g>
<g>
	<rect x="47.2" y="72.8" class="st53" width="53" height="77.7"/>
	<polygon class="st54" points="98.6,127.4 42.6,127.4 42.6,122.4 47.2,111.6 94.7,111.6 98.6,122.4 	"/>
	<rect x="46.3" y="71.3" class="st55" width="54.8" height="2.9"/>
	<rect x="47.2" y="137" class="st56" width="53" height="13.4"/>
	<rect x="42.6" y="122.4" class="st57" width="56" height="5"/>
	<g>
		<rect x="58.5" y="85.8" class="st14" width="11.5" height="18.3"/>
		<rect x="58" y="103.4" class="st35" width="12.6" height="1.2"/>
		<rect x="57.5" y="104.6" class="st35" width="13.7" height="0.9"/>
		<rect x="58.5" y="94.5" class="st35" width="11.5" height="0.7"/>
		<rect x="58.5" y="85.8" class="st35" width="11.5" height="0.7"/>
		<rect x="69.4" y="85.8" class="st35" width="0.7" height="17.6"/>
		<rect x="58.5" y="85.8" class="st35" width="0.7" height="17.6"/>
		<polygon class="st58" points="58.9,99.1 69.7,96 69.7,99.1 58.9,101.6 		"/>
		<polygon class="st59" points="58.9,89.6 68.7,86.2 69.7,86.2 69.7,87.3 58.9,90.8 		"/>
		<polygon class="st2" points="58.9,91.6 69.7,88.1 69.7,89.1 58.9,92.3 		"/>
	</g>
	<g>
		<rect x="77.3" y="85.8" class="st14" width="11.5" height="18.3"/>
		<rect x="77.3" y="85.8" class="st35" width="11.5" height="0.7"/>
		<rect x="88.1" y="85.8" class="st35" width="0.7" height="17.6"/>
		<rect x="77.3" y="85.8" class="st35" width="0.7" height="17.6"/>
		<rect x="77.3" y="94.5" class="st35" width="11.5" height="0.7"/>
		<rect x="76.7" y="103.4" class="st35" width="12.6" height="1.2"/>
		<rect x="76.2" y="104.6" class="st35" width="13.7" height="0.9"/>
		<polygon class="st59" points="77.7,91.9 88.4,87.5 88.4,89.9 77.7,94 		"/>
		<polygon class="st39" points="77.7,96.5 88.4,92 88.4,96.2 77.7,100.4 		"/>
	</g>
	<rect x="52.7" y="75.9" class="st60" width="3.3" height="1.6"/>
	<rect x="57.5" y="77.8" class="st60" width="3.3" height="1.6"/>
	<rect x="50.2" y="80" class="st60" width="3.3" height="1.6"/>
	<rect x="87.2" y="79.2" class="st60" width="3.3" height="1.6"/>
	<rect x="91.9" y="81.6" class="st60" width="3.3" height="1.6"/>
	<rect x="49.4" y="93.6" class="st60" width="3.3" height="1.6"/>
	<rect x="52.7" y="96.2" class="st60" width="3.3" height="1.6"/>
	<rect x="90.8" y="97" class="st60" width="3.3" height="1.6"/>
	<rect x="94.6" y="99.6" class="st60" width="3.3" height="1.6"/>
</g>
<g>
	<rect x="724.3" y="132.2" class="st9" width="5" height="19.7"/>
	<ellipse class="st10" cx="726" cy="110.3" rx="20.2" ry="26.6"/>
</g>
<g>
	<rect x="105.7" y="63.7" class="st61" width="186.6" height="86.8"/>
	<g>
		<g>
			<rect x="146.1" y="80.8" class="st62" width="16.9" height="16.9"/>
			<path class="st35" d="M162.8,81.1v16.4h-16.4V81.1H162.8 M163.3,80.6h-17.4V98h17.4L163.3,80.6L163.3,80.6z"/>
		</g>
		<line class="st63" x1="154.6" y1="80.6" x2="154.6" y2="98"/>
		<line class="st63" x1="145.9" y1="89.3" x2="163.3" y2="89.3"/>
		<line class="st63" x1="145.9" y1="84.8" x2="163.3" y2="84.8"/>
		<line class="st63" x1="145.9" y1="93.8" x2="163.3" y2="93.8"/>
		<line class="st63" x1="150" y1="80.6" x2="150" y2="98"/>
		<line class="st63" x1="158.6" y1="80.6" x2="158.6" y2="98"/>
	</g>
	<g>
		<g>
			<rect x="234.3" y="80.8" class="st62" width="16.9" height="16.9"/>
			<path class="st35" d="M251,81.1v16.4h-16.4V81.1H251 M251.5,80.6h-17.4V98h17.4V80.6L251.5,80.6z"/>
		</g>
		<line class="st63" x1="242.8" y1="80.6" x2="242.8" y2="98"/>
		<line class="st63" x1="234" y1="89.3" x2="251.5" y2="89.3"/>
		<line class="st63" x1="234" y1="84.8" x2="251.5" y2="84.8"/>
		<line class="st63" x1="234" y1="93.8" x2="251.5" y2="93.8"/>
		<line class="st63" x1="238.2" y1="80.6" x2="238.2" y2="98"/>
		<line class="st63" x1="246.8" y1="80.6" x2="246.8" y2="98"/>
	</g>
	<g>
		<g>
			<rect x="114.1" y="119.2" class="st62" width="16.9" height="16.9"/>
			<path class="st35" d="M130.8,119.5v16.4h-16.4v-16.4H130.8 M131.3,119h-17.4v17.4h17.4V119L131.3,119z"/>
		</g>
		<line class="st63" x1="122.6" y1="119" x2="122.6" y2="136.4"/>
		<line class="st63" x1="113.9" y1="127.7" x2="131.3" y2="127.7"/>
		<line class="st63" x1="113.9" y1="123.2" x2="131.3" y2="123.2"/>
		<line class="st63" x1="113.9" y1="132.2" x2="131.3" y2="132.2"/>
		<line class="st63" x1="118" y1="119" x2="118" y2="136.4"/>
		<line class="st63" x1="126.6" y1="119" x2="126.6" y2="136.4"/>
	</g>
	<g>
		<g>
			<rect x="265.8" y="119.2" class="st62" width="16.9" height="16.9"/>
			<path class="st35" d="M282.5,119.5v16.4h-16.4v-16.4H282.5 M283,119h-17.4v17.4H283V119L283,119z"/>
		</g>
		<line class="st63" x1="274.3" y1="119" x2="274.3" y2="136.4"/>
		<line class="st63" x1="283" y1="127.7" x2="265.5" y2="127.7"/>
		<line class="st63" x1="265.5" y1="123.2" x2="283" y2="123.2"/>
		<line class="st63" x1="265.5" y1="132.2" x2="283" y2="132.2"/>
		<line class="st63" x1="269.7" y1="119" x2="269.7" y2="136.4"/>
		<line class="st63" x1="278.3" y1="119" x2="278.3" y2="136.4"/>
	</g>
	<rect x="105.7" y="135.8" class="st64" width="186.6" height="4"/>
	<g>
		<rect x="185.8" y="75.5" class="st65" width="26.3" height="24"/>
		<line class="st63" x1="193.9" y1="93.1" x2="203.3" y2="82.3"/>
		<line class="st63" x1="193.9" y1="82.7" x2="203.7" y2="93.1"/>
		<circle class="st65" cx="198.8" cy="87.9" r="3.2"/>
		<circle class="st63" cx="198.8" cy="87.9" r="7.2"/>
		<rect x="191.6" y="80.6" class="st63" width="14.5" height="14.5"/>
		<rect x="185.8" y="80.6" class="st63" width="26.3" height="14.5"/>
		<rect x="191.6" y="75.5" class="st63" width="14.5" height="24"/>
		<line class="st63" x1="198.8" y1="99.5" x2="198.8" y2="95.1"/>
		<line class="st63" x1="198.9" y1="80.7" x2="198.9" y2="75.5"/>
		<line class="st63" x1="185.7" y1="88.1" x2="191.6" y2="88.1"/>
		<line class="st63" x1="205.7" y1="87.7" x2="211.7" y2="87.7"/>
	</g>
	<g>
		<rect x="176.8" y="116.7" class="st65" width="43.3" height="33.5"/>
		<g>
			<rect x="186.6" y="125.4" class="st62" width="9.3" height="23.3"/>
			<path class="st35" d="M194.4,126.9v20.3h-6.3v-20.3H194.4 M197.4,123.9h-12.3v26.3h12.3V123.9L197.4,123.9z"/>
		</g>
		<g>
			<rect x="199.6" y="125.4" class="st62" width="9.3" height="23.3"/>
			<path class="st35" d="M207.4,126.9v20.3h-6.3v-20.3H207.4 M210.4,123.9h-12.3v26.3h12.3V123.9L210.4,123.9z"/>
		</g>
		<line class="st63" x1="176.8" y1="123.9" x2="220.1" y2="123.9"/>
		<line class="st63" x1="185.1" y1="116.7" x2="185.1" y2="123.9"/>
		<line class="st63" x1="210.4" y1="123.9" x2="210.4" y2="116.7"/>
		<line class="st63" x1="193.7" y1="116.7" x2="193.7" y2="123.9"/>
		<line class="st63" x1="202.5" y1="116.7" x2="202.5" y2="123.9"/>
		<line class="st63" x1="210.4" y1="132.4" x2="220.1" y2="132.4"/>
		<line class="st63" x1="210.4" y1="140.8" x2="220.1" y2="140.8"/>
		<line class="st63" x1="176.8" y1="132.4" x2="185.6" y2="132.4"/>
		<line class="st63" x1="176.8" y1="140.8" x2="185.6" y2="140.8"/>
	</g>
	<polygon class="st66" points="141,116.7 256.8,116.7 256.8,112.4 141,113.2 	"/>
	<polygon class="st67" points="185.6,98.2 212,86.1 212,88.1 185.7,99.5 	"/>
	<polygon class="st42" points="177.5,132.2 221.8,117.9 221.8,126 177.1,139.1 	"/>
	<polygon class="st59" points="177.5,143.1 222.6,128.5 222.6,133.9 177.5,147 	"/>
	<polygon class="st68" points="176.5,128.1 222.4,115.1 222.4,116.4 176.6,129.5 	"/>
	<rect x="105.7" y="98.2" class="st64" width="186.6" height="4"/>
	<polygon class="st69" points="141,98.2 141,114.7 141,150.5 153.8,150.5 153.8,114.7 166.4,114.7 166.4,150.5 179.2,150.5 
		179.2,114.7 219.9,114.7 219.9,150.5 232.6,150.5 232.6,114.7 244,114.7 244,150.5 256.8,150.5 256.8,114.7 256.8,98.2 	"/>
	<polygon class="st64" points="296.3,68 101.5,68 101.5,64.4 104,53.7 293.3,53.7 296.3,64.6 	"/>
	<rect x="101.5" y="64.4" class="st70" width="194.9" height="3.6"/>
	<rect x="152.3" y="114.7" class="st70" width="1.5" height="35.8"/>
	<rect x="177.6" y="114.7" class="st70" width="1.5" height="35.8"/>
	<rect x="219.8" y="114.7" class="st70" width="1.5" height="35.8"/>
	<rect x="244" y="114.5" class="st70" width="1.5" height="35.8"/>
	<polygon class="st71" points="145.9,88.1 163.3,82.3 163.3,87.5 145.9,92.3 	"/>
	<polygon class="st72" points="145.9,94.7 163.3,89.8 163.3,94.3 150.4,98 145.9,98 	"/>
	<polygon class="st72" points="185.7,83.1 202.5,75.5 207,75.5 185.7,85.7 	"/>
	<polygon class="st73" points="185.7,89.8 212,76.5 212,83.6 185.7,96.3 	"/>
	<polygon class="st39" points="234,86.8 251.5,81.9 251.5,88.6 234,93.1 	"/>
	<polygon class="st29" points="265.5,124.8 283,120.3 283,125.3 265.5,131.5 	"/>
	<polygon class="st59" points="265.5,133.5 283,127.7 283,130.1 265.5,135.4 	"/>
	<polygon class="st71" points="113.9,125.6 131.3,120.8 131.3,122.3 113.9,126.7 	"/>
	<polygon class="st74" points="113.9,128.6 131.3,123.8 131.3,126.2 113.9,131.1 	"/>
	<rect x="112.9" y="70.8" class="st75" width="5.1" height="1.9"/>
	<rect x="135.9" y="73.8" class="st75" width="5.1" height="1.9"/>
	<rect x="108.8" y="81" class="st75" width="5.1" height="1.9"/>
	<rect x="122.6" y="79.5" class="st75" width="5.1" height="1.9"/>
	<rect x="166.7" y="91.3" class="st75" width="5.1" height="1.9"/>
	<rect x="115.5" y="108.1" class="st75" width="5.1" height="1.9"/>
	<rect x="123.3" y="113.5" class="st75" width="5" height="1.9"/>
	<rect x="264.6" y="111.5" class="st75" width="5" height="1.9"/>
	<rect x="272.2" y="106.1" class="st75" width="5" height="1.9"/>
	<rect x="282" y="114.2" class="st75" width="5" height="1.9"/>
	<rect x="263" y="142.4" class="st75" width="5" height="1.9"/>
	<rect x="216.3" y="100.1" class="st42" width="5.1" height="1.9"/>
	<rect x="223.8" y="102.2" class="st42" width="5.1" height="1.9"/>
	<rect x="149.7" y="100.1" class="st42" width="5.1" height="1.9"/>
	<rect x="168.4" y="102.2" class="st42" width="5.1" height="1.9"/>
	<rect x="143.4" y="115.8" class="st42" width="5.1" height="1.9"/>
	<rect x="145.9" y="124.3" class="st42" width="5.1" height="1.9"/>
	<rect x="168.4" y="136.8" class="st42" width="5.1" height="1.9"/>
	<rect x="170.9" y="125" class="st42" width="5.1" height="1.9"/>
	<rect x="222.4" y="125" class="st42" width="5.1" height="1.9"/>
	<rect x="224.9" y="133.5" class="st42" width="5.1" height="1.9"/>
	<rect x="248.9" y="111.5" class="st42" width="5.1" height="1.9"/>
	<rect x="247.6" y="115.9" class="st42" width="5.1" height="1.9"/>
	<rect x="275.8" y="144.1" class="st75" width="5" height="1.9"/>
	<rect x="121.5" y="90.1" class="st75" width="5.1" height="1.9"/>
	<rect x="165.8" y="74.6" class="st75" width="5.1" height="1.9"/>
	<rect x="171.8" y="78.6" class="st75" width="5.1" height="1.9"/>
	<rect x="177.6" y="82.7" class="st75" width="5.1" height="1.9"/>
	<rect x="218.8" y="71.8" class="st75" width="5.1" height="1.9"/>
	<rect x="216.3" y="77.6" class="st75" width="5.1" height="1.9"/>
	<rect x="225.6" y="81" class="st75" width="5.1" height="1.9"/>
	<rect x="260.5" y="87.4" class="st75" width="5" height="1.9"/>
	<rect x="267.1" y="81.8" class="st75" width="5" height="1.9"/>
	<rect x="278.3" y="90.1" class="st75" width="5" height="1.9"/>
	<rect x="256.8" y="75.5" class="st75" width="5" height="1.9"/>
	<rect x="277" y="71.8" class="st75" width="5" height="1.9"/>
	<g>
		<path class="st35" d="M173.1,105.3h1v0.4H174l-0.9-0.1L173.1,105.3L173.1,105.3z M173.1,110.2l0.8-0.1h0.1l0.8,0.1v0.3h-1.8V110.2
			z M173.8,105.3h0.3l0.1,2.3v2.9h-0.4L173.8,105.3L173.8,105.3z M173.8,105.3h0.7l1.9,4.7h-0.3l1.8-4.7h0.4l-2.1,5.3h-0.4
			L173.8,105.3z M177.4,110.2l0.9-0.1h0.2l1,0.1v0.3h-2.1L177.4,110.2L177.4,110.2z M178.1,108.1v-2.8h0.7c0,0.8,0,1.6,0,2.4v0.4
			c0,0.8,0,1.6,0,2.4H178C178.1,109.8,178.1,108.9,178.1,108.1z M178.4,105.3h1.1v0.3l-1,0.1h-0.1V105.3z"/>
		<path class="st35" d="M183,110.2l0.8-0.1h0.2l0.9,0.1v0.3H183V110.2z M185.4,105.3h0.5l1.8,5.3h-0.7l-1.6-4.7h0.2l-1.6,4.7h-0.4
			L185.4,105.3z M184.4,108.5h2.1l0.1,0.4h-2.4L184.4,108.5z M186,110.2l1-0.1h0.2l1,0.1v0.3H186L186,110.2L186,110.2z"/>
		<path class="st35" d="M191.1,105.6v-0.3h2.2v0.3l-1,0.1h-0.2L191.1,105.6z M193.8,110.1c0.9,0,1.4-0.5,1.4-1.9v-2.9h0.4v3.1
			c0,1.7-0.8,2.3-1.9,2.3c-1.1,0-1.9-0.6-1.9-2.1v-0.8c0-0.8,0-1.6,0-2.4h0.8c0,0.8,0,1.6,0,2.4v0.6
			C192.5,109.7,193,110.1,193.8,110.1z M195.2,105.7l-0.9-0.1v-0.3h1.9v0.3l-0.9,0.1H195.2z"/>
		<path class="st35" d="M199.9,105.3h1v0.4h-0.1l-0.9-0.1L199.9,105.3L199.9,105.3z M199.9,110.2l0.8-0.1h0.2l0.8,0.1v0.3h-1.8
			L199.9,110.2L199.9,110.2z M200.6,105.3h0.3l0.1,2.3v2.9h-0.4L200.6,105.3L200.6,105.3z M200.6,105.3h0.7l1.9,4.7H203l1.8-4.7h0.4
			l-2.1,5.3h-0.4L200.6,105.3z M204.2,110.2l0.9-0.1h0.2l1,0.1v0.3h-2.1L204.2,110.2L204.2,110.2z M204.9,108.1v-2.8h0.7
			c0,0.8,0,1.6,0,2.4v0.4c0,0.8,0,1.6,0,2.4h-0.7C204.9,109.8,204.9,108.9,204.9,108.1z M205.2,105.3h1.1v0.3l-1,0.1h-0.1V105.3z"/>
		<path class="st35" d="M210.2,105.6v-0.3h1.1v0.4h-0.1L210.2,105.6z M211.3,110.1v0.4h-1.1v-0.3L211.3,110.1L211.3,110.1z
			 M210.9,107.7c0-0.8,0-1.6,0-2.4h0.8c0,0.8,0,1.6,0,2.4v0.3c0,0.9,0,1.7,0,2.5h-0.8c0-0.8,0-1.6,0-2.4V107.7z M213.4,105.3
			l0.4,0.4h-2.5v-0.4h2.8l0.1,1.4h-0.4L213.4,105.3z M213,108.1h-1.8v-0.4h1.8V108.1z M214.3,109.2l-0.1,1.4h-3v-0.4h2.7l-0.4,0.4
			l0.2-1.4L214.3,109.2L214.3,109.2L214.3,109.2z M212.8,107.8l0.1-0.8h0.4v1.9h-0.4l-0.1-0.9V107.8z"/>
		<path class="st35" d="M218.1,105.6v-0.3h1.1v0.4h-0.1L218.1,105.6z M219.1,110.1v0.4H218v-0.3L219.1,110.1L219.1,110.1z
			 M218.8,107.7c0-0.8,0-1.6,0-2.4h0.8c0,0.8,0,1.6,0,2.4v0.3c0,0.9,0,1.7,0,2.5h-0.8c0-0.8,0-1.6,0-2.4V107.7z M221.3,105.3
			l0.4,0.4h-2.5v-0.4h2.8l0.1,1.4h-0.4L221.3,105.3z M220.9,108.1h-1.8v-0.4h1.8V108.1z M222.2,109.2l-0.1,1.4h-3v-0.4h2.7l-0.4,0.4
			l0.2-1.4L222.2,109.2L222.2,109.2L222.2,109.2z M220.7,107.8l0.1-0.8h0.4v1.9h-0.4l-0.1-0.9V107.8z"/>
	</g>
</g>
<g>
	<rect x="377.2" y="114.1" class="st9" width="6.1" height="23.5"/>
	<path class="st76" d="M380.3,119c0,0-10.4,0.8-11.6-11.2s5.3-51,11.6-59.9C384.3,57.8,402.5,118.8,380.3,119z"/>
</g>
<g>
	<rect x="404" y="121.3" class="st9" width="4.7" height="18.2"/>
	<path class="st76" d="M406.4,125.2c0,0-8.1,0.6-9-8.7s4.1-39.5,9-46.4C409.5,77.7,423.6,125,406.4,125.2z"/>
</g>
<g>
	<rect x="670.3" y="82.6" class="st77" width="46.3" height="67.8"/>
	<rect x="673.3" y="74.3" class="st77" width="4.4" height="4.4"/>
	<rect x="670.3" y="82.6" class="st78" width="2" height="67.8"/>
	<rect x="672.3" y="129.6" class="st5" width="44.2" height="1.4"/>
	<polygon class="st7" points="671.7,130.3 720.6,130.3 720.6,125.9 716.6,116.5 675.1,116.5 671.7,125.9 	"/>
	<polygon class="st79" points="718.7,83.9 668.6,83.9 668.6,81.6 669.6,77.5 717.5,77.5 718.7,81.5 	"/>
	<rect x="671.7" y="125.9" class="st80" width="48.9" height="4.4"/>
	<rect x="675.2" y="85.3" class="st72" width="2.9" height="1.4"/>
	<rect x="679.4" y="87" class="st72" width="2.9" height="1.4"/>
	<rect x="673" y="88.9" class="st72" width="2.9" height="1.4"/>
	<rect x="705.3" y="88.2" class="st72" width="2.9" height="1.4"/>
	<rect x="709.4" y="90.3" class="st72" width="2.9" height="1.4"/>
	<rect x="672.3" y="100.8" class="st72" width="2.9" height="1.4"/>
	<rect x="675.2" y="103.1" class="st72" width="2.9" height="1.4"/>
	<rect x="708.5" y="103.8" class="st72" width="2.9" height="1.4"/>
	<rect x="711.8" y="106" class="st72" width="2.9" height="1.4"/>
	<g>
		<path class="st55" d="M681.3,110.2v-12c0.5-1.6,1.9-5.5,3.6-6.7c1.8,1,3.1,5.1,3.5,6.7v12.1L681.3,110.2L681.3,110.2L681.3,110.2z
			"/>
		<path class="st35" d="M684.9,92.1c1.3,1,2.5,4,3,6.1v11.5h-6.1V98.2C682.4,96.3,683.6,93.2,684.9,92.1 M684.8,90.9
			c-2.4,1.3-4,7.2-4,7.2v12.6h8.1V98.1C688.9,98.1,687.4,91.9,684.8,90.9L684.8,90.9z"/>
	</g>
	<g>
		<path class="st53" d="M699.1,110.2v-12c0.5-1.6,1.9-5.5,3.6-6.7c1.8,1,3.1,5.1,3.5,6.7v12.1L699.1,110.2L699.1,110.2L699.1,110.2z
			"/>
		<path class="st35" d="M702.8,92.1c1.3,1,2.5,4,3,6.1v11.5h-6.1V98.2C700.2,96.3,701.4,93.2,702.8,92.1 M702.7,90.9
			c-2.4,1.3-4,7.2-4,7.2v12.6h8.1V98.1C706.7,98.1,705.3,91.9,702.7,90.9L702.7,90.9z"/>
	</g>
	<g>
		<rect x="681" y="110.8" class="st53" width="7.8" height="0.2"/>
		<polygon class="st35" points="689.3,110.3 680.5,110.3 680.5,111.5 689.3,111.5 		"/>
	</g>
	<g>
		<rect x="698.8" y="110.8" class="st53" width="7.8" height="0.2"/>
		<polygon class="st35" points="707.1,110.3 698.3,110.3 698.3,111.5 707.1,111.5 		"/>
	</g>
	<polygon class="st30" points="681,100.1 688.3,96.9 688.6,98.9 688.6,101.1 681.2,104 	"/>
	<polygon class="st81" points="681,105.4 688.6,102.2 688.6,103.9 681,106.8 	"/>
	<polygon class="st67" points="699,99.8 705.7,96.1 706.3,98 699,101.8 	"/>
	<polygon class="st39" points="699,103.8 706.3,100 706.3,104.8 699,107.7 	"/>
</g>
<g>
	<polygon class="st82" points="422,106.6 422,97.6 379.8,97.6 379.8,106.6 360.6,106.6 360.6,150.5 441.2,150.5 441.2,106.6 	"/>
	<rect x="358.9" y="105.4" class="st83" width="20.9" height="3.2"/>
	<rect x="421.8" y="104.9" class="st83" width="20.9" height="3.2"/>
	<rect x="378.9" y="96" class="st83" width="44.3" height="3.2"/>
	<rect x="369.9" y="119.9" class="st84" width="16.3" height="30.6"/>
	<rect x="371.9" y="121.9" class="st85" width="12.7" height="7.1"/>
	<rect x="371.9" y="131.1" class="st86" width="12.7" height="16.6"/>
	<rect x="368.7" y="149.5" class="st14" width="18.7" height="0.9"/>
	<rect x="393.8" y="116.9" class="st87" width="42.1" height="23.5"/>
	<line class="st85" x1="414.8" y1="116.9" x2="414.8" y2="140.4"/>
	<line class="st85" x1="393.8" y1="129.1" x2="435.9" y2="129.1"/>
	<rect x="392.5" y="140.4" class="st88" width="44.6" height="1.8"/>
	<polygon class="st89" points="393.8,131.5 435.9,121.1 435.9,125.5 393.8,136.2 	"/>
	<polygon class="st72" points="393.8,123.5 423.2,116.9 435.9,116.9 393.8,127.5 	"/>
</g>
<g>
	<path class="st90" d="M252.1,98.7c0,0,10.9,17.2,39.4,2"/>
	<g>
		<polygon class="st91" points="250,103.7 247.6,103 252.2,99 254.9,102.2 249.6,106.3 		"/>
		<path class="st48" d="M252.2,99.2l2.6,3l-5,3.8l0.4-2.4l-2.4-0.7L252.2,99.2 M252.2,98.8L252,99l-4.4,3.8l-0.4,0.3l0.4,0.1
			l2.1,0.6l-0.4,2.2l-0.1,0.6l0.5-0.4l5-3.8l0.2-0.2L255,102l-2.6-3L252.2,98.8L252.2,98.8z"/>
	</g>
	<g>
		<polygon class="st92" points="256.1,108.4 253.6,108.8 256.2,103.2 260,105 256.8,111 		"/>
		<path class="st48" d="M256.2,103.4l3.6,1.7l-3,5.6l-0.6-2.3l-2.4,0.4L256.2,103.4 M256.1,103l-0.1,0.2l-2.4,5.3l-0.2,0.4l0.5-0.1
			l2.2-0.3l0.6,2.1l0.2,0.6l0.3-0.6l3-5.6l0.1-0.2l-0.2-0.1l-3.6-1.7L256.1,103L256.1,103z"/>
	</g>
	<g>
		<polygon class="st91" points="264.2,111.4 261.8,112.3 263,106.3 267.2,107.2 265.4,113.7 		"/>
		<path class="st48" d="M263.1,106.4l3.9,0.9l-1.6,6.1l-1.1-2.1l-2.3,0.9L263.1,106.4 M263,106.1l0,0.3l-1.2,5.7l-0.1,0.4l0.4-0.2
			l2.1-0.8l1,1.9l0.3,0.6l0.2-0.6l1.6-6.1l0.1-0.3l-0.3-0.1l-3.9-0.9L263,106.1L263,106.1z"/>
	</g>
	<g>
		<polygon class="st92" points="273.4,111.6 271.4,113.2 270.6,107.1 274.8,106.6 275.3,113.3 		"/>
		<path class="st48" d="M274.7,106.8l0.4,6.3l-1.8-1.7l-1.9,1.6l-0.7-5.8L274.7,106.8 M274.9,106.5l-0.3,0l-4,0.4l-0.3,0l0,0.3
			l0.7,5.8l0.1,0.5l0.4-0.3l1.7-1.4l1.6,1.5l0.5,0.4l0-0.6l-0.4-6.3L274.9,106.5L274.9,106.5z"/>
	</g>
	<g>
		<polygon class="st91" points="278.3,105.8 282.3,104.6 283.9,111.2 281.7,109.7 280.1,111.7 		"/>
		<path class="st48" d="M282.2,104.8l1.5,6.1l-2-1.3l-1.5,1.9l-1.7-5.5L282.2,104.8 M282.4,104.5l-0.3,0.1l-3.8,1.1l-0.2,0.1
			l0.1,0.2l1.7,5.5l0.1,0.4l0.3-0.4l1.4-1.7l1.9,1.2l0.5,0.3l-0.1-0.6l-1.5-6.1L282.4,104.5L282.4,104.5z"/>
	</g>
	<g>
		<polygon class="st92" points="285,103.8 288.8,101.9 291.5,108.1 289.1,107.1 287.8,109.3 		"/>
		<path class="st48" d="M288.7,102.1l2.5,5.8l-2.2-1l-1.2,2.1l-2.6-5.2L288.7,102.1 M288.9,101.8l-0.2,0.1l-3.6,1.8l-0.2,0.1
			l0.1,0.2l2.6,5.2l0.2,0.4l0.2-0.4l1.1-1.9l2,0.9l0.6,0.3l-0.3-0.6L289,102L288.9,101.8L288.9,101.8z"/>
	</g>
</g>
<g>
	<rect x="34.4" y="138" class="st9" width="3.3" height="12.8"/>
	<path class="st76" d="M36.1,140.7c0,0-5.7,0.4-6.3-6.1c-0.6-6.5,2.9-27.7,6.3-32.6C38.3,107.4,48.2,140.6,36.1,140.7z"/>
</g>
<g>
	<rect x="102.5" y="140.3" class="st9" width="3.3" height="12.8"/>
	<path class="st76" d="M104.2,142.9c0,0-5.7,0.4-6.3-6.1s2.9-27.7,6.3-32.6C106.3,109.7,116.2,142.8,104.2,142.9z"/>
</g>
<g>
	<rect x="282.7" y="137.6" class="st9" width="4.1" height="15.7"/>
	<path class="st76" d="M284.8,140.9c0,0-7,0.5-7.7-7.5s3.5-34.1,7.7-40.1C287.4,100,299.6,140.8,284.8,140.9z"/>
</g>
<g>
	<g>
		<rect x="297.6" y="38.2" class="st93" width="61.3" height="112.3"/>
		<rect x="297.6" y="39.4" class="st94" width="61.3" height="4.6"/>
		<rect x="297.6" y="49.3" class="st94" width="61.3" height="3"/>
		<rect x="294.9" y="44" class="st95" width="66.7" height="5.3"/>
		<rect x="295.6" y="34.1" class="st95" width="66.7" height="5.3"/>
		<g>
			<path class="st96" d="M320.4,72.4c0-2.6-2.3-4.7-5.2-4.7c-2.9,0-5.2,2.1-5.2,4.7H310v17.8h10.5L320.4,72.4L320.4,72.4z"/>
			<line class="st97" x1="310" y1="72.4" x2="320.5" y2="72.4"/>
			<line class="st97" x1="310" y1="81.4" x2="320.5" y2="81.4"/>
		</g>
		<g>
			<path class="st96" d="M348.1,72.4c0-2.6-2.3-4.7-5.2-4.7c-2.9,0-5.2,2.1-5.2,4.7h-0.1v17.8h10.5L348.1,72.4L348.1,72.4z"/>
			<line class="st97" x1="337.6" y1="72.4" x2="348.1" y2="72.4"/>
			<line class="st97" x1="337.6" y1="81.4" x2="348.1" y2="81.4"/>
		</g>
		<rect x="302.8" y="104.2" class="st98" width="51.4" height="46.3"/>
		<rect x="301.4" y="102.9" class="st22" width="55.7" height="3.8"/>
		<g>
			<g>
				<rect x="320.6" y="121.2" class="st35" width="15.1" height="29.3"/>
			</g>
			<rect x="321.9" y="122.5" class="st22" width="12.7" height="18.6"/>
			<rect x="321.9" y="142.1" class="st99" width="12.7" height="7.6"/>
			<polygon class="st59" points="321.9,130 334.5,124.6 334.5,131.5 321.9,136.2 			"/>
		</g>
	</g>
	<rect x="302.8" y="56.5" class="st100" width="5.2" height="2"/>
	<rect x="309.1" y="60.1" class="st100" width="5.2" height="2"/>
	<rect x="299.3" y="84" class="st100" width="5.2" height="2.1"/>
	<rect x="302.8" y="89.2" class="st100" width="5.2" height="2.1"/>
	<rect x="321.9" y="93.1" class="st100" width="5.2" height="2.1"/>
	<rect x="332" y="93.1" class="st100" width="5.2" height="2.1"/>
	<rect x="339.1" y="60.1" class="st100" width="5.2" height="2"/>
</g>
<g>
	<rect x="577.1" y="63.4" class="st101" width="89.1" height="87.1"/>
	<rect x="583.1" y="112.7" class="st102" width="76.8" height="37.8"/>
	<rect x="583.1" y="112.2" class="st103" width="76.8" height="1.3"/>
	<rect x="582.2" y="106.9" class="st47" width="79.3" height="5.7"/>
	<rect x="586.6" y="115" class="st104" width="16.1" height="31.5"/>
	<rect x="605.3" y="115" class="st104" width="16.1" height="31.5"/>
	<rect x="623.6" y="115" class="st104" width="16.1" height="31.5"/>
	<rect x="641.6" y="115" class="st104" width="16.1" height="31.5"/>
	<polygon class="st58" points="586.6,132.4 602.8,120 602.8,130.8 586.6,141.8 	"/>
	<polygon class="st89" points="586.6,126 601.2,115 602.8,115 602.8,116.3 586.6,128.2 	"/>
	<polygon class="st105" points="605.3,141.8 621.5,129 621.5,133.6 605.3,145.8 	"/>
	<polygon class="st106" points="605.3,139.1 621.5,127 621.5,121.6 605.3,133.9 	"/>
	<polygon class="st89" points="605.3,124.9 619.9,115 621.5,115 605.3,126.1 	"/>
	<polygon class="st72" points="623.6,134 639.7,124.4 639.7,129.2 623.6,138 	"/>
	<polygon class="st72" points="623.6,123.3 623.6,128.2 639.7,120 639.7,115 	"/>
	<polygon class="st72" points="623.6,141.2 639.7,131.9 639.7,133.6 623.6,142.5 	"/>
	<polyline class="st107" points="641.6,127.1 641.9,126.9 657.8,115 657.8,128.7 641.6,138.1 	"/>
	<polygon class="st108" points="641.6,139.9 657.8,130.4 657.8,132.4 641.6,141.8 	"/>
	<rect x="585.7" y="146.5" class="st35" width="17.6" height="1.3"/>
	<rect x="604.6" y="146.5" class="st35" width="17.6" height="1.3"/>
	<rect x="623.1" y="146.5" class="st35" width="17.6" height="1.3"/>
	<rect x="641.6" y="146.5" class="st35" width="16.5" height="1.3"/>
	<rect x="574.4" y="58.7" class="st47" width="95.5" height="5.6"/>
	<rect x="644.3" y="75.2" class="st104" width="11.8" height="20.8"/>
	<rect x="625.7" y="75.2" class="st104" width="11.8" height="20.8"/>
	<rect x="607.5" y="75.2" class="st104" width="11.8" height="20.8"/>
	<rect x="588.9" y="75.2" class="st104" width="11.8" height="20.8"/>
	<rect x="574.4" y="64.3" class="st48" width="95.5" height="0.8"/>
	<line class="st63" x1="594.8" y1="75.2" x2="594.8" y2="96"/>
	<line class="st63" x1="613.3" y1="75.2" x2="613.3" y2="96"/>
	<line class="st63" x1="631.7" y1="75.2" x2="631.7" y2="96"/>
	<line class="st63" x1="650.2" y1="75.2" x2="650.2" y2="96"/>
	<line class="st63" x1="588.9" y1="89.9" x2="600.8" y2="89.9"/>
	<line class="st63" x1="588.9" y1="80.7" x2="600.8" y2="80.7"/>
	<line class="st63" x1="607.5" y1="89.9" x2="619.3" y2="89.9"/>
	<line class="st63" x1="607.5" y1="80.7" x2="619.3" y2="80.7"/>
	<line class="st63" x1="625.7" y1="89.9" x2="637.6" y2="89.9"/>
	<line class="st63" x1="625.7" y1="80.7" x2="637.6" y2="80.7"/>
	<line class="st63" x1="644.3" y1="89.9" x2="656.1" y2="89.9"/>
	<line class="st63" x1="644.3" y1="80.7" x2="656.1" y2="80.7"/>
	<rect x="588.2" y="95.7" class="st35" width="13.3" height="0.6"/>
	<rect x="587.7" y="96.3" class="st35" width="14.4" height="1.2"/>
	<rect x="606.6" y="95.7" class="st35" width="13.3" height="0.6"/>
	<rect x="606.1" y="96.3" class="st35" width="14.4" height="1.2"/>
	<rect x="625" y="95.7" class="st35" width="13.3" height="0.6"/>
	<rect x="624.5" y="96.3" class="st35" width="14.4" height="1.2"/>
	<rect x="643.6" y="95.7" class="st35" width="13.3" height="0.6"/>
	<rect x="643" y="96.3" class="st35" width="14.4" height="1.2"/>
</g>
<g>
	<rect x="434.1" y="137.4" class="st9" width="4.1" height="15.7"/>
	<path class="st76" d="M436.1,140.7c0,0-7,0.5-7.7-7.5s3.5-34.1,7.7-40.1C438.8,99.8,451,140.6,436.1,140.7z"/>
</g>
<g>
	<path class="st90" d="M310.5,49.5c0,0,12,16.4,39.4-0.6"/>
	<g>
		<polygon class="st91" points="308.8,54.6 306.3,54.1 310.7,49.7 313.6,52.8 308.6,57.2 		"/>
		<path class="st48" d="M310.7,49.9l2.8,2.9l-4.7,4.2l0.2-2.4l-2.4-0.5L310.7,49.9 M310.7,49.6l-0.2,0.2l-4.1,4.1l-0.3,0.3l0.5,0.1
			l2.2,0.5l-0.2,2.2l-0.1,0.6l0.5-0.4l4.7-4.2l0.2-0.2l-0.2-0.2l-2.8-2.9L310.7,49.6L310.7,49.6z"/>
	</g>
	<g>
		<polygon class="st92" points="315.2,58.9 312.7,59.5 314.9,53.7 318.8,55.3 316.1,61.4 		"/>
		<path class="st48" d="M315,53.9l3.7,1.5l-2.6,5.7l-0.8-2.3l-2.4,0.5L315,53.9 M314.8,53.5l-0.1,0.2l-2,5.4l-0.2,0.4l0.5-0.1
			l2.2-0.5l0.7,2.1l0.2,0.6l0.3-0.6l2.6-5.7l0.1-0.2l-0.2-0.1l-3.7-1.5L314.8,53.5L314.8,53.5z"/>
	</g>
	<g>
		<polygon class="st91" points="323.5,61.3 321.1,62.4 322,56.3 326.2,57 324.8,63.6 		"/>
		<path class="st48" d="M322.1,56.5l3.9,0.6l-1.2,6.2l-1.3-2.1l-2.2,1L322.1,56.5 M321.9,56.2l0,0.3l-0.8,5.8l-0.1,0.5l0.4-0.2l2-1
			l1.2,1.9l0.3,0.5l0.1-0.6l1.2-6.2l0-0.3l-0.3,0l-3.9-0.6L321.9,56.2L321.9,56.2z"/>
	</g>
	<g>
		<polygon class="st92" points="329.6,56.6 333.8,55.9 334.6,62.6 332.6,60.9 330.8,62.7 		"/>
		<path class="st48" d="M333.7,56l0.8,6.2l-1.9-1.5l-1.7,1.7l-1.1-5.7L333.7,56 M333.9,55.7l-0.3,0l-3.9,0.7l-0.3,0l0,0.3l1.1,5.7
			l0.1,0.5l0.3-0.3l1.6-1.5l1.7,1.4l0.5,0.4l-0.1-0.6l-0.8-6.2L333.9,55.7L333.9,55.7z"/>
	</g>
	<g>
		<polygon class="st91" points="337.1,54.9 341.1,53.4 343.1,59.8 340.9,58.5 339.4,60.6 		"/>
		<path class="st48" d="M341,53.6l1.9,6l-2.1-1.2l-1.4,2l-2.1-5.4L341,53.6 M341.2,53.2l-0.3,0.1l-3.7,1.4l-0.2,0.1l0.1,0.2l2.1,5.4
			l0.2,0.4l0.3-0.4l1.3-1.8l1.9,1.1l0.5,0.3l-0.2-0.6l-1.9-6L341.2,53.2L341.2,53.2z"/>
	</g>
	<g>
		<polygon class="st92" points="343.7,52.4 347.4,50.3 350.5,56.3 348,55.4 346.9,57.7 		"/>
		<path class="st48" d="M347.3,50.5l2.9,5.6l-2.3-0.8l-1.1,2.2l-3-5L347.3,50.5 M347.4,50.1l-0.2,0.1l-3.4,2l-0.2,0.1l0.1,0.2l3,5
			l0.2,0.4l0.2-0.4l1-2l2.1,0.7l0.6,0.2l-0.3-0.6l-2.9-5.6L347.4,50.1L347.4,50.1z"/>
	</g>
</g>
<g>
	<path class="st90" d="M581.9,101.1c0,0,12,16.4,39.4-0.6"/>
	<g>
		<polygon class="st91" points="580.2,106.2 577.7,105.6 582.1,101.3 585,104.3 580,108.8 		"/>
		<path class="st48" d="M582.1,101.5l2.8,2.9l-4.7,4.2l0.2-2.4l-2.4-0.5L582.1,101.5 M582.1,101.1l-0.2,0.2l-4.1,4.1l-0.3,0.3
			l0.5,0.1l2.2,0.4l-0.2,2.2l-0.1,0.6l0.5-0.4l4.7-4.2l0.2-0.2l-0.2-0.2l-2.8-2.9L582.1,101.1L582.1,101.1z"/>
	</g>
	<g>
		<polygon class="st92" points="586.6,110.5 584.1,111 586.3,105.3 590.2,106.8 587.5,112.9 		"/>
		<path class="st48" d="M586.4,105.4l3.7,1.5l-2.6,5.7l-0.8-2.3l-2.4,0.5L586.4,105.4 M586.2,105.1l-0.1,0.2l-2,5.4l-0.2,0.4
			l0.5-0.1l2.2-0.5l0.7,2.1l0.2,0.6l0.3-0.6l2.6-5.7l0.1-0.2l-0.2-0.1l-3.7-1.5L586.2,105.1L586.2,105.1z"/>
	</g>
	<g>
		<polygon class="st91" points="594.8,112.9 592.5,114 593.4,107.9 597.5,108.5 596.2,115.1 		"/>
		<path class="st48" d="M593.5,108l3.9,0.6l-1.2,6.2l-1.3-2.1l-2.2,1.1L593.5,108 M593.3,107.7l0,0.3l-0.8,5.8l-0.1,0.5l0.4-0.2l2-1
			l1.2,1.9l0.3,0.5l0.1-0.6l1.2-6.2l0-0.3l-0.3,0l-3.9-0.6L593.3,107.7L593.3,107.7z"/>
	</g>
	<g>
		<polygon class="st92" points="601,108.2 605.1,107.4 606,114.1 604,112.4 602.2,114.2 		"/>
		<path class="st48" d="M605,107.6l0.8,6.2l-1.9-1.5l-1.7,1.7l-1.1-5.7L605,107.6 M605.3,107.3l-0.3,0.1l-3.9,0.7l-0.3,0.1l0,0.3
			l1.1,5.7l0.1,0.5l0.3-0.3l1.6-1.6l1.7,1.4l0.5,0.4l-0.1-0.6l-0.8-6.2L605.3,107.3L605.3,107.3z"/>
	</g>
	<g>
		<polygon class="st91" points="608.5,106.4 612.5,104.9 614.5,111.4 612.2,110.1 610.7,112.2 		"/>
		<path class="st48" d="M612.4,105.1l1.9,6l-2.1-1.2l-1.4,2l-2.1-5.4L612.4,105.1 M612.5,104.8l-0.3,0.1l-3.7,1.4l-0.2,0.1l0.1,0.2
			l2.1,5.4l0.2,0.4l0.3-0.4l1.3-1.8l1.9,1.1l0.5,0.3l-0.2-0.6l-1.9-6L612.5,104.8L612.5,104.8z"/>
	</g>
	<g>
		<polygon class="st92" points="615.1,103.9 618.8,101.8 621.8,107.8 619.4,106.9 618.3,109.3 		"/>
		<path class="st48" d="M618.7,102l2.9,5.6l-2.3-0.8l-1.1,2.2l-3-5L618.7,102 M618.8,101.7l-0.2,0.1l-3.4,2l-0.2,0.1l0.1,0.2l3,5
			l0.2,0.4l0.2-0.4l1-2l2.1,0.7l0.6,0.2l-0.3-0.6l-2.9-5.6L618.8,101.7L618.8,101.7z"/>
	</g>
</g>
<g>
	<path class="st90" d="M625.8,100.3c0,0,12,16.5,39.4-0.6"/>
	<g>
		<polygon class="st91" points="624.1,105.4 621.5,104.9 625.9,100.6 628.9,103.6 623.8,108.1 		"/>
		<path class="st48" d="M625.9,100.7l2.8,2.9l-4.7,4.2l0.2-2.4l-2.4-0.5L625.9,100.7 M625.9,100.4l-0.2,0.2l-4.1,4.1l-0.3,0.3
			l0.5,0.1l2.2,0.4l-0.2,2.2l-0.1,0.6l0.5-0.4l4.7-4.2l0.2-0.2l-0.2-0.2l-2.8-2.9L625.9,100.4L625.9,100.4z"/>
	</g>
	<g>
		<polygon class="st92" points="630.5,109.7 628,110.3 630.1,104.5 634.1,106.1 631.3,112.2 		"/>
		<path class="st48" d="M630.2,104.7l3.7,1.5l-2.6,5.7l-0.8-2.3l-2.4,0.5L630.2,104.7 M630.1,104.4l-0.1,0.2l-2,5.4l-0.2,0.4
			l0.5-0.1l2.2-0.5l0.7,2.1l0.2,0.6l0.3-0.6l2.6-5.7l0.1-0.2l-0.2-0.1l-3.7-1.5L630.1,104.4L630.1,104.4z"/>
	</g>
	<g>
		<polygon class="st91" points="638.7,112.2 636.4,113.3 637.2,107.2 641.4,107.8 640.1,114.4 		"/>
		<path class="st48" d="M637.3,107.3l3.9,0.6l-1.2,6.2l-1.3-2.1l-2.2,1.1L637.3,107.3 M637.1,107l0,0.3l-0.8,5.8l-0.1,0.5l0.4-0.2
			l2-1l1.2,1.9l0.3,0.5l0.1-0.6l1.2-6.2l0-0.3l-0.3,0l-3.9-0.6L637.1,107L637.1,107z"/>
	</g>
	<g>
		<polygon class="st92" points="644.8,107.5 649,106.7 649.9,113.4 647.8,111.7 646,113.5 		"/>
		<path class="st48" d="M648.9,106.9l0.8,6.2l-1.9-1.5l-1.7,1.7l-1.1-5.7L648.9,106.9 M649.1,106.6l-0.3,0.1l-3.9,0.7l-0.3,0.1
			l0,0.3l1.1,5.7l0.1,0.5l0.3-0.3l1.6-1.6l1.7,1.4l0.5,0.4l-0.1-0.6l-0.8-6.2L649.1,106.6L649.1,106.6z"/>
	</g>
	<g>
		<polygon class="st91" points="652.4,105.7 656.3,104.2 658.4,110.6 656.1,109.4 654.6,111.4 		"/>
		<path class="st48" d="M656.3,104.4l1.9,6l-2.1-1.2l-1.4,2l-2.1-5.4L656.3,104.4 M656.4,104.1l-0.3,0.1l-3.7,1.4l-0.2,0.1l0.1,0.2
			l2.1,5.4l0.2,0.4l0.3-0.4l1.3-1.8l1.9,1.1l0.5,0.3l-0.2-0.6l-1.9-6L656.4,104.1L656.4,104.1z"/>
	</g>
	<g>
		<polygon class="st92" points="659,103.2 662.6,101.1 665.7,107.1 663.2,106.2 662.1,108.5 		"/>
		<path class="st48" d="M662.6,101.3l2.9,5.6l-2.3-0.8l-1.1,2.2l-3-5L662.6,101.3 M662.7,100.9l-0.2,0.1l-3.4,2l-0.2,0.1l0.1,0.2
			l3,5l0.2,0.4l0.2-0.4l1-2l2.1,0.7l0.6,0.2l-0.3-0.6l-2.9-5.6L662.7,100.9L662.7,100.9z"/>
	</g>
</g>
<g>
	<path class="st90" d="M107.7,103.4c0,0,10.9,17.2,39.3,2"/>
	<g>
		<polygon class="st91" points="105.6,108.4 103.1,107.7 107.8,103.7 110.5,106.9 105.2,111 		"/>
		<path class="st48" d="M107.8,103.9l2.6,3l-5,3.8l0.4-2.4l-2.3-0.7L107.8,103.9 M107.8,103.5l-0.2,0.2l-4.4,3.8l-0.3,0.3l0.4,0.1
			l2.1,0.6l-0.3,2.2l-0.1,0.6l0.5-0.4l5-3.8l0.2-0.2l-0.2-0.2l-2.6-3L107.8,103.5L107.8,103.5z"/>
	</g>
	<g>
		<polygon class="st92" points="111.7,113.1 109.2,113.5 111.7,107.9 115.6,109.7 112.4,115.7 		"/>
		<path class="st48" d="M111.8,108.1l3.6,1.7l-2.9,5.6l-0.6-2.3l-2.4,0.4L111.8,108.1 M111.7,107.8l-0.1,0.2l-2.4,5.3l-0.2,0.4
			l0.5-0.1l2.2-0.3l0.6,2.1l0.2,0.6l0.3-0.6l2.9-5.6l0.1-0.2l-0.2-0.1l-3.6-1.7L111.7,107.8L111.7,107.8z"/>
	</g>
	<g>
		<polygon class="st91" points="119.8,116.1 117.4,117.1 118.6,111 122.8,111.9 121,118.4 		"/>
		<path class="st48" d="M118.7,111.2l3.9,0.9l-1.6,6.1l-1.1-2.1l-2.3,0.9L118.7,111.2 M118.5,110.9l-0.1,0.3l-1.2,5.7l-0.1,0.4
			l0.4-0.2l2.1-0.8l1,1.9l0.3,0.6l0.2-0.6l1.6-6.1l0.1-0.3l-0.3-0.1l-3.9-0.9L118.5,110.9L118.5,110.9z"/>
	</g>
	<g>
		<polygon class="st92" points="128.9,116.3 127,117.9 126.2,111.8 130.4,111.3 130.9,118.1 		"/>
		<path class="st48" d="M130.3,111.5l0.4,6.3l-1.8-1.7l-1.8,1.6l-0.7-5.8L130.3,111.5 M130.5,111.2l-0.3,0l-3.9,0.4l-0.3,0l0,0.3
			l0.7,5.8l0.1,0.5l0.3-0.3l1.7-1.4l1.6,1.5l0.5,0.4l0-0.6l-0.4-6.3L130.5,111.2L130.5,111.2z"/>
	</g>
	<g>
		<polygon class="st91" points="133.8,110.6 137.9,109.3 139.5,115.9 137.3,114.4 135.7,116.4 		"/>
		<path class="st48" d="M137.8,109.5l1.5,6.1l-2-1.3l-1.5,1.9l-1.7-5.5L137.8,109.5 M138,109.2l-0.3,0.1l-3.8,1.1l-0.2,0.1l0.1,0.2
			l1.7,5.5l0.1,0.4l0.3-0.4l1.4-1.7l1.9,1.2l0.5,0.3l-0.1-0.6l-1.5-6.1L138,109.2L138,109.2z"/>
	</g>
	<g>
		<polygon class="st92" points="140.6,108.5 144.4,106.7 147.1,112.8 144.6,111.8 143.4,114 		"/>
		<path class="st48" d="M144.3,106.8l2.5,5.8l-2.2-1l-1.2,2.1l-2.6-5.2L144.3,106.8 M144.4,106.5l-0.2,0.1l-3.6,1.8l-0.2,0.1
			l0.1,0.2l2.6,5.2l0.2,0.4l0.2-0.4l1.1-1.9l2,0.9l0.6,0.3l-0.3-0.6l-2.5-5.8L144.4,106.5L144.4,106.5z"/>
	</g>
</g>
</svg>
