<?xml version="1.0" encoding="utf-8"?>
<!-- Generator: Adobe Illustrator 23.0.3, SVG Export Plug-In . SVG Version: 6.00 Build 0)  -->
<svg version="1.1" id="Layer_1" xmlns="http://www.w3.org/2000/svg" xmlns:xlink="http://www.w3.org/1999/xlink" x="0px" y="0px"
	 viewBox="0 0 110.11 73.75" style="enable-background:new 0 0 110.11 73.75;" xml:space="preserve">
<style type="text/css">
	.st0{opacity:0.82;fill:#FFFFFF;}
</style>
<path class="st0" d="M27.33,41.87c0,0-1.26,9.07,9.77,6.94c0,3.02,6.4,5.69,9.96,5.69c3.56,0,7.65-4.45,7.65-4.45
	s2.67,3.74,8.36,2.49c5.69-1.25,5.16-4.36,5.16-4.36s10.5,7.74,15.12-4.18c4.63-11.92-8.01-16.55-11.56-13.16
	c0,0-0.89-11.56-14.94-8.9c-6.58,1.96-9.25,7.83-9.25,7.83s-4.27-2.67-7.29-0.18c-3.02,2.49-3.02,6.76-3.02,6.76
	S27.52,33.86,27.33,41.87z"/>
<g>
</g>
<g>
</g>
<g>
</g>
<g>
</g>
<g>
</g>
<g>
</g>
</svg>
