<?xml version="1.0" encoding="utf-8"?>
<!-- Generator: Adobe Illustrator 23.0.3, SVG Export Plug-In . SVG Version: 6.00 Build 0)  -->
<svg version="1.1" id="Layer_1" xmlns="http://www.w3.org/2000/svg" xmlns:xlink="http://www.w3.org/1999/xlink" x="0px" y="0px"
	 viewBox="0 0 110.11 73.75" style="enable-background:new 0 0 110.11 73.75;" xml:space="preserve">
<style type="text/css">
	.st0{opacity:0.82;fill:#FFFFFF;}
</style>
<path class="st0" d="M24.7,31.56c0,0-11.11,0.6-11.11,11.11s13.49,14.48,18.05,8.53c2.18,2.78,15.08,2.78,15.67-1.79
	c2.18,2.58,18.45,7.54,24.2-2.18c2.18,3.57,20.43,12.89,23.01-4.46c2.58-17.36-16.07-14.78-17.85-11.21
	c0.4-7.54-11.86-19.44-22.49-14.28c-4.68,3.17-7.26,4.76-8.06,7.34c-1.79-0.79-7.74-4.96-14.28-0.6S24.7,31.56,24.7,31.56z"/>
<g>
</g>
<g>
</g>
<g>
</g>
<g>
</g>
<g>
</g>
<g>
</g>
</svg>
