<?xml version="1.0" encoding="utf-8"?>
<!-- Generator: Adobe Illustrator 23.0.3, SVG Export Plug-In . SVG Version: 6.00 Build 0)  -->
<svg version="1.1" id="Layer_1" xmlns="http://www.w3.org/2000/svg" xmlns:xlink="http://www.w3.org/1999/xlink" x="0px" y="0px"
	 viewBox="0 0 759.38 97.74" style="enable-background:new 0 0 759.38 97.74;" xml:space="preserve">
<style type="text/css">
	.st0{fill:#A6BC77;}
</style>
<path class="st0" d="M670.15,21.17c-0.4-1.88-1.32-4.7-3.27-5.29c-2.98-0.9-3.16-6.23-5.75-6.36c-2.58-0.12-6.61-6.4-9.91-0.46
	c-3.3,5.93-8.02,5.29-9.71,4.66c-1.7-0.63-7.89-6.67-10.77-0.5s-7.76-0.15-11.56,7.28c-0.12,0.23-0.23,0.45-0.35,0.66H493.69
	c-0.09-0.16-0.18-0.31-0.27-0.49c-2.22-4.35-5.08-0.65-6.77-4.26c-1.68-3.61-5.31-0.07-6.3,0.29c-0.99,0.37-3.75,0.74-5.68-2.73
	c-1.93-3.47-4.29,0.2-5.8,0.27c-1.51,0.07-1.62,3.19-3.36,3.72c-1.18,0.36-1.72,2.11-1.94,3.2h-96.6c-0.36-1.27-1.03-2.73-2.2-3.08
	c-2.18-0.66-2.32-4.57-4.21-4.66c-1.89-0.09-4.84-4.69-7.26-0.34s-5.87,3.88-7.12,3.42c-1.24-0.46-5.78-4.89-7.89-0.37
	c-2.07,4.43-5.54,0.08-8.3,5.03H215.35c-2.52-2.4-5.37,0.34-7.16-3.49c-2.11-4.52-6.65-0.09-7.89,0.37
	c-1.24,0.46-4.7,0.93-7.12-3.42s-5.37,0.25-7.26,0.34c-1.89,0.09-2.03,4-4.21,4.66c-0.7,0.21-1.22,0.82-1.6,1.54H89.1
	c-0.3-0.42-0.6-0.93-0.92-1.55c-2.78-5.45-6.37-0.82-8.47-5.34c-2.11-4.52-6.65-0.09-7.89,0.37c-1.24,0.46-4.7,0.93-7.12-3.42
	c-2.42-4.35-5.37,0.25-7.26,0.34c-1.89,0.09-2.03,4-4.21,4.66c-1.91,0.58-2.47,4.07-2.58,4.94H0v76.57h759.38V21.17H670.15z"/>
<g>
</g>
<g>
</g>
<g>
</g>
<g>
</g>
<g>
</g>
<g>
</g>
</svg>
