<?xml version="1.0" encoding="utf-8"?>
<!-- Generator: Adobe Illustrator 23.0.3, SVG Export Plug-In . SVG Version: 6.00 Build 0)  -->
<svg version="1.1" id="Layer_1" xmlns="http://www.w3.org/2000/svg" xmlns:xlink="http://www.w3.org/1999/xlink" x="0px" y="0px"
	 viewBox="0 0 11.33 38.72" style="enable-background:new 0 0 11.33 38.72;" xml:space="preserve">
<style type="text/css">
	.st0{fill:none;stroke:#808285;stroke-width:0.25;stroke-linecap:round;stroke-miterlimit:10;}
	.st1{fill:#E93949;}
	.st2{opacity:0.29;}
	.st3{opacity:0.21;fill:#FFFFFF;}
</style>
<g>
	<path class="st0" d="M5.43,11.79c-0.5,2.17-1.17,5.92-0.75,8.25c0.42,2.33,2.33,7.08,2.08,9.08s-1.19,5.75-1.1,8.25"/>
	<g>
		<path class="st1" d="M11.03,7c-0.36,3.55-3.19,7.55-6.15,7.25c-2.96-0.3-4.93-4.78-4.57-8.34s3.05-6.19,6.01-5.89
			S11.39,3.45,11.03,7z"/>
		<path class="st2" d="M11.03,7c0.03-0.27,0.04-0.54,0.04-0.81c-1.76,4.38-4.49,6.91-6.06,8.07C7.92,14.43,10.68,10.5,11.03,7z"/>
		<path class="st3" d="M1.44,4.17C1.6,4.62,2.25,5.64,2.91,5.39c0.67-0.25,1.11-1.52,1.7-1.95s1.63-0.39,1.65-1.01
			c0.01-0.62-1.06-1.82-2-1.44S2.72,2.34,2.26,2.55S1.26,3.63,1.44,4.17z"/>
	</g>
</g>
<g>
</g>
<g>
</g>
<g>
</g>
<g>
</g>
<g>
</g>
<g>
</g>
</svg>
