<?xml version="1.0" encoding="utf-8"?>
<!-- Generator: Adobe Illustrator 23.0.3, SVG Export Plug-In . SVG Version: 6.00 Build 0)  -->
<svg version="1.1" id="Layer_1" xmlns="http://www.w3.org/2000/svg" xmlns:xlink="http://www.w3.org/1999/xlink" x="0px" y="0px"
	 viewBox="0 0 11.33 38.72" style="enable-background:new 0 0 11.33 38.72;" xml:space="preserve">
<style type="text/css">
	.st0{fill:none;stroke:#808285;stroke-width:0.25;stroke-linecap:round;stroke-miterlimit:10;}
	.st1{fill:#F7941D;}
	.st2{opacity:0.29;}
	.st3{opacity:0.6;fill:#FFFFFF;}
</style>
<g>
	<path class="st0" d="M5.94,13.14c-0.5,2.17-1.17,5.92-0.75,8.25c0.42,2.33,2.33,7.08,2.08,9.08s-1.19,5.75-1.1,8.25"/>
	<g>
		<path class="st1" d="M11.11,6.57c0.05,3.67-2.37,8.08-5.43,8.12s-5.6-4.3-5.64-7.97S2.43,0.04,5.49,0S11.07,2.9,11.11,6.57z"/>
		<path class="st2" d="M11.11,6.57c0-0.28-0.02-0.56-0.06-0.83c-1.28,4.68-3.78,7.58-5.24,8.95C8.81,14.52,11.16,10.18,11.11,6.57z"
			/>
		<path class="st3" d="M1,4.8c0.21,0.45,1,1.4,1.65,1.07C3.29,5.55,3.6,4.2,4.15,3.69s1.62-0.59,1.56-1.22S4.42,0.73,3.5,1.22
			S2.09,2.79,1.64,3.06S0.75,4.28,1,4.8z"/>
	</g>
</g>
<g>
</g>
<g>
</g>
<g>
</g>
<g>
</g>
<g>
</g>
<g>
</g>
</svg>
