<?xml version="1.0" encoding="utf-8"?>
<!-- Generator: Adobe Illustrator 23.0.3, SVG Export Plug-In . SVG Version: 6.00 Build 0)  -->
<svg version="1.1" id="Layer_1" xmlns="http://www.w3.org/2000/svg" xmlns:xlink="http://www.w3.org/1999/xlink" x="0px" y="0px"
	 viewBox="0 0 10.78 37.73" style="enable-background:new 0 0 10.78 37.73;" xml:space="preserve">
<style type="text/css">
	.st0{fill:none;stroke:#808285;stroke-width:0.25;stroke-linecap:round;stroke-miterlimit:10;}
	.st1{fill:#2BB673;}
	.st2{opacity:0.29;}
	.st3{opacity:0.21;fill:#FFFFFF;}
</style>
<g>
	<path class="st0" d="M6.27,12.15c-0.5,2.17-1.17,5.92-0.75,8.25c0.42,2.33,2.33,7.08,2.08,9.08s-1.19,5.75-1.1,8.25"/>
	<g>
		<path class="st1" d="M10.78,6.49c-0.01,3.57-2.44,7.82-5.42,7.81C2.38,14.29-0.01,10.02,0,6.45S2.44-0.01,5.42,0
			S10.79,2.92,10.78,6.49z"/>
		<path class="st2" d="M10.78,6.49c0-0.27-0.01-0.55-0.04-0.81c-1.33,4.53-3.8,7.31-5.25,8.62C8.41,14.18,10.77,10.01,10.78,6.49z"
			/>
		<path class="st3" d="M0.96,4.6c0.2,0.44,0.95,1.38,1.58,1.07c0.64-0.31,0.96-1.62,1.51-2.11S5.64,3.01,5.59,2.4
			S4.36,0.69,3.46,1.15s-1.41,1.5-1.85,1.76S0.73,4.08,0.96,4.6z"/>
	</g>
</g>
<g>
</g>
<g>
</g>
<g>
</g>
<g>
</g>
<g>
</g>
<g>
</g>
</svg>
