<?xml version="1.0" encoding="utf-8"?>
<!-- Generator: Adobe Illustrator 23.0.3, SVG Export Plug-In . SVG Version: 6.00 Build 0)  -->
<svg version="1.1" id="Layer_1" xmlns="http://www.w3.org/2000/svg" xmlns:xlink="http://www.w3.org/1999/xlink" x="0px" y="0px"
	 viewBox="0 0 110.11 73.75" style="enable-background:new 0 0 110.11 73.75;" xml:space="preserve">
<style type="text/css">
	.st0{opacity:0.65;}
	.st1{fill:#EF4136;}
	.st2{fill:#414042;}
	.st3{fill:#F1F2F2;stroke:#000000;stroke-width:0.25;stroke-miterlimit:10;}
	.st4{fill:#F7941D;}
	.st5{fill:#F1F2F2;stroke:#9E1C20;stroke-width:0.25;stroke-miterlimit:10;}
	.st6{fill:#FFECD3;}
	.st7{fill:#F9ED32;}
</style>
<g>
	<ellipse class="st0" cx="56.44" cy="50.53" rx="35.19" ry="3.02"/>
	<g>
		<path class="st1" d="M95.85,30.46c0,0,1.72-0.16,1.87,1.02c0.16,1.17,0,14.21,0,14.21H18.54l-3.44-2.73V32.73
			c0,0-0.31-2.11,2.03-1.95L27.84,30l6.95-1.41c0,0,6.87-7.11,7.5-7.73s1.48-0.94,3.44-1.09H71.8c0,0,1.64-0.16,2.65,0.7
			c0,0,8.04,6.79,10.39,9.68L95.85,30.46z"/>
		<path d="M79.45,37.95c4.3,0,7.79,3.45,7.87,7.74H71.58C71.66,41.41,75.15,37.95,79.45,37.95z"/>
		<rect x="18.78" y="45.84" transform="matrix(-1 -4.494062e-11 4.494062e-11 -1 110.4113 92.6199)" width="72.86" height="0.94"/>
		<path d="M39.07,45.69H23.32c0.08-4.28,3.57-7.74,7.87-7.74C35.5,37.95,38.98,41.41,39.07,45.69z"/>
		<circle class="st2" cx="31.19" cy="45.84" r="7.18"/>
		<circle class="st3" cx="31.19" cy="45.84" r="4.69"/>
		<circle class="st3" cx="31.19" cy="45.84" r="2.07"/>
		<circle class="st2" cx="79.45" cy="45.84" r="7.18"/>
		<circle class="st3" cx="79.45" cy="45.84" r="4.69"/>
		<circle class="st3" cx="79.45" cy="45.84" r="2.07"/>
		
			<rect x="52.59" y="32.72" transform="matrix(-1 -4.500013e-11 4.500013e-11 -1 108.6153 66.6947)" class="st4" width="3.44" height="1.25"/>
		
			<rect x="71.02" y="32.72" transform="matrix(-1 -4.492419e-11 4.492419e-11 -1 145.3167 66.6947)" class="st4" width="3.28" height="1.25"/>
		<path class="st5" d="M71.57,20.54H59.85v9.84h19.6v-1.25C79.45,29.13,73.6,20.54,71.57,20.54z"/>
		<path class="st5" d="M58.52,20.54v10.15l-20.85-0.31c0,0-1.48-0.31-0.62-1.41c0.86-1.09,8.36-8.43,8.36-8.43H58.52z"/>
		<path class="st2" d="M91.05,45.84h8.05c0.15,0,0.27-0.12,0.27-0.27v-4.38c0-0.15-0.12-0.27-0.27-0.27h-8.05
			c-0.15,0-0.27,0.12-0.27,0.27v4.38C90.77,45.72,90.9,45.84,91.05,45.84z"/>
		<path class="st2" d="M13.58,45.84h6.95c0.15,0,0.27-0.12,0.27-0.27v-4.38c0-0.15-0.12-0.27-0.27-0.27h-6.95
			c-0.15,0-0.27,0.12-0.27,0.27v4.38C13.31,45.72,13.43,45.84,13.58,45.84z"/>
		<ellipse class="st6" cx="16.63" cy="36" rx="0.43" ry="1.95"/>
		<ellipse class="st7" cx="97.17" cy="37.21" rx="0.62" ry="2.07"/>
	</g>
</g>
<g>
</g>
<g>
</g>
<g>
</g>
<g>
</g>
<g>
</g>
<g>
</g>
</svg>
